<?xml version="1.0" encoding="utf-8"?>
<!-- Generator: Adobe Illustrator 26.3.1, SVG Export Plug-In . SVG Version: 6.00 Build 0)  -->
<svg version="1.1" id="Capa_1" xmlns="http://www.w3.org/2000/svg" xmlns:xlink="http://www.w3.org/1999/xlink" x="0px" y="0px"
	 viewBox="0 0 8192 721.2" style="enable-background:new 0 0 8192 721.2;" xml:space="preserve">
<style type="text/css">
	.st0{opacity:0.6;fill:none;stroke:url(#SVGID_1_);stroke-width:2;stroke-miterlimit:7.5564;enable-background:new    ;}
	
		.st1{opacity:0.6;fill:none;stroke:url(#SVGID_00000180347986580600765910000006640275518399392128_);stroke-width:2;stroke-miterlimit:7.5564;enable-background:new    ;}
	
		.st2{opacity:0.6;fill:none;stroke:url(#SVGID_00000182529920077454442370000009426352403544524988_);stroke-width:2;stroke-miterlimit:7.5564;enable-background:new    ;}
	
		.st3{opacity:0.6;fill:none;stroke:url(#SVGID_00000107586932744408497190000017845055782082598290_);stroke-width:2;stroke-miterlimit:7.5564;enable-background:new    ;}
	
		.st4{opacity:0.6;fill:none;stroke:url(#SVGID_00000139296263631973778380000002190872952582025347_);stroke-width:2;stroke-miterlimit:7.5564;enable-background:new    ;}
</style>
<g>
	
		<linearGradient id="SVGID_1_" gradientUnits="userSpaceOnUse" x1="9612.9697" y1="401.6893" x2="-1228.2301" y2="401.6893" gradientTransform="matrix(0.7556 0 0 -0.7556 928.0948 618.9417)">
		<stop  offset="0" style="stop-color:#1134F1"/>
		<stop  offset="0.1031" style="stop-color:#3957F6"/>
		<stop  offset="0.1885" style="stop-color:#9E47AC"/>
		<stop  offset="0.2098" style="stop-color:#A63FA2"/>
		<stop  offset="0.2811" style="stop-color:#687FF6"/>
		<stop  offset="0.3746" style="stop-color:#7F39C9"/>
		<stop  offset="0.5048" style="stop-color:#BE428A"/>
		<stop  offset="0.5875" style="stop-color:#BA2716"/>
		<stop  offset="0.6996" style="stop-color:#F22B0D"/>
		<stop  offset="0.8798" style="stop-color:#9B3DAD"/>
		<stop  offset="1" style="stop-color:#1134F1"/>
	</linearGradient>
	<path class="st0" d="M0,313.6c266.4,0,776.5-172.1,1132.4-163.6c352.2,8.4,625.7,259.9,1099.9,249.7
		C2797,387.7,3148.7,118.9,3917.4,149c670.9,26.3,968.5,335.1,1387,335.1c791.1,0,899.4-313.6,1581.8-304.8
		c585,7.6,920,134.2,1305.8,134.2"/>
	
		<linearGradient id="SVGID_00000147215476300125672520000018362182420637652412_" gradientUnits="userSpaceOnUse" x1="9612.9697" y1="386.6917" x2="-1228.2301" y2="386.6917" gradientTransform="matrix(0.7556 0 0 -0.7556 928.0948 618.9417)">
		<stop  offset="0" style="stop-color:#1134F1"/>
		<stop  offset="0.1031" style="stop-color:#3957F6"/>
		<stop  offset="0.1885" style="stop-color:#9E47AC"/>
		<stop  offset="0.2098" style="stop-color:#A63FA2"/>
		<stop  offset="0.2811" style="stop-color:#687FF6"/>
		<stop  offset="0.3746" style="stop-color:#7F39C9"/>
		<stop  offset="0.5048" style="stop-color:#BE428A"/>
		<stop  offset="0.5875" style="stop-color:#BA2716"/>
		<stop  offset="0.6996" style="stop-color:#F22B0D"/>
		<stop  offset="0.8798" style="stop-color:#9B3DAD"/>
		<stop  offset="1" style="stop-color:#1134F1"/>
	</linearGradient>
	
		<path style="opacity:0.6;fill:none;stroke:url(#SVGID_00000147215476300125672520000018362182420637652412_);stroke-width:2;stroke-miterlimit:7.5564;enable-background:new    ;" d="
		M0,313.6c266.4,0,777.9-187.1,1133.8-178.6c352.2,8.4,665.7,319.6,1170.3,306.9c601-14.1,887.9-337.7,1656.6-307.6
		c670.9,26.3,930.9,386.9,1399.2,386.9c849.3,0,917.8-356.7,1640.1-350.2c552.6,5.7,806.2,142.4,1192,142.4"/>
	
		<linearGradient id="SVGID_00000072978919041235116280000016896286251776898742_" gradientUnits="userSpaceOnUse" x1="9612.9688" y1="371.7173" x2="-1228.2301" y2="371.7173" gradientTransform="matrix(0.7556 0 0 -0.7556 928.0948 618.9417)">
		<stop  offset="0" style="stop-color:#1134F1"/>
		<stop  offset="0.1031" style="stop-color:#3957F6"/>
		<stop  offset="0.1885" style="stop-color:#9E47AC"/>
		<stop  offset="0.2098" style="stop-color:#A63FA2"/>
		<stop  offset="0.2811" style="stop-color:#687FF6"/>
		<stop  offset="0.3746" style="stop-color:#7F39C9"/>
		<stop  offset="0.5048" style="stop-color:#BE428A"/>
		<stop  offset="0.5875" style="stop-color:#BA2716"/>
		<stop  offset="0.6996" style="stop-color:#F22B0D"/>
		<stop  offset="0.8798" style="stop-color:#9B3DAD"/>
		<stop  offset="1" style="stop-color:#1134F1"/>
	</linearGradient>
	
		<path style="opacity:0.6;fill:none;stroke:url(#SVGID_00000072978919041235116280000016896286251776898742_);stroke-width:2;stroke-miterlimit:7.5564;enable-background:new    ;" d="
		M0,313.6c266.4,0,779.2-202,1135.1-193.5c352.2,8.4,705.7,379.2,1240.8,364.1C3013,468.1,3235.3,89.5,4004,119.6
		c671,26.3,893.3,438.6,1411.5,438.6c907.5,0,936.2-399.9,1698.4-395.5c520.1,3.8,692.3,150.7,1078.1,150.7"/>
	
		<linearGradient id="SVGID_00000047056848507186495910000014602111364238714808_" gradientUnits="userSpaceOnUse" x1="9612.9688" y1="356.7306" x2="-1228.2301" y2="356.7306" gradientTransform="matrix(0.7556 0 0 -0.7556 928.0948 618.9417)">
		<stop  offset="0" style="stop-color:#1134F1"/>
		<stop  offset="0.1031" style="stop-color:#3957F6"/>
		<stop  offset="0.1885" style="stop-color:#9E47AC"/>
		<stop  offset="0.2098" style="stop-color:#A63FA2"/>
		<stop  offset="0.2811" style="stop-color:#687FF6"/>
		<stop  offset="0.3746" style="stop-color:#7F39C9"/>
		<stop  offset="0.5048" style="stop-color:#BE428A"/>
		<stop  offset="0.5875" style="stop-color:#BA2716"/>
		<stop  offset="0.6996" style="stop-color:#F22B0D"/>
		<stop  offset="0.8798" style="stop-color:#9B3DAD"/>
		<stop  offset="1" style="stop-color:#1134F1"/>
	</linearGradient>
	
		<path style="opacity:0.6;fill:none;stroke:url(#SVGID_00000047056848507186495910000014602111364238714808_);stroke-width:2;stroke-miterlimit:7.5564;enable-background:new    ;" d="
		M0,313.6c266.4,0,780.6-216.9,1136.5-208.4c352.1,8.4,745.7,438.8,1311.2,421.2c673.5-18.1,831-451.6,1599.7-421.4
		c670.9,26.3,855.8,490.3,1423.6,490.3c965.8,0,954.5-443,1756.8-440.8c487.6,1.9,578.4,159.1,964.3,159.1"/>
	
		<linearGradient id="SVGID_00000090993015260940360080000001773802090260979647_" gradientUnits="userSpaceOnUse" x1="9612.9697" y1="341.8733" x2="-1228.2301" y2="341.8733" gradientTransform="matrix(0.7556 0 0 -0.7556 928.0948 618.9417)">
		<stop  offset="0" style="stop-color:#1134F1"/>
		<stop  offset="0.1031" style="stop-color:#3957F6"/>
		<stop  offset="0.1885" style="stop-color:#9E47AC"/>
		<stop  offset="0.2098" style="stop-color:#A63FA2"/>
		<stop  offset="0.2811" style="stop-color:#687FF6"/>
		<stop  offset="0.3746" style="stop-color:#7F39C9"/>
		<stop  offset="0.5048" style="stop-color:#BE428A"/>
		<stop  offset="0.5875" style="stop-color:#BA2716"/>
		<stop  offset="0.6996" style="stop-color:#F22B0D"/>
		<stop  offset="0.8798" style="stop-color:#9B3DAD"/>
		<stop  offset="1" style="stop-color:#1134F1"/>
	</linearGradient>
	
		<path style="opacity:0.6;fill:none;stroke:url(#SVGID_00000090993015260940360080000001773802090260979647_);stroke-width:2;stroke-miterlimit:7.5564;enable-background:new    ;" d="
		M0,313.6c266.4,0,781.9-231.9,1137.8-223.4c352.2,8.4,785.6,498.5,1381.6,478.4C3229.2,548.5,3322,60.1,4090.7,90.2
		c670.9,26.3,818.1,542.1,1435.8,542.1c1024,0,972.9-486.2,1815-486.2c455.1,0,464.6,167.4,850.5,167.4"/>
</g>
</svg>
