<svg width="364" height="691" viewBox="0 0 364 691" fill="none" xmlns="http://www.w3.org/2000/svg">
<g opacity="0.4">
<path d="M121.654 295.365L198.42 295.043V315.077H122.006H120.506V316.577V667.411V668.911H122.006H198.42V688.997H-25.6953V668.911H46.9574H48.4574V667.411V316.577V315.077H46.9574H-25.6953V295.037H46.9574H48.4574V293.537V244.425C48.4574 158.889 65.5011 98.3581 93.8678 59.2493C122.186 20.2073 161.893 2.36572 207.666 2.36572C226.223 2.36572 246.055 6.82266 261.2 17.0233C276.279 27.1794 286.767 43.0537 286.767 66.1629C286.767 75.6482 282.212 83.5187 275.631 89.0532C269.031 94.6044 260.469 97.7328 252.668 97.7328C240.061 97.7328 230.635 93.1409 224.329 85.3842C217.989 77.5851 214.674 66.4254 214.674 53.1044C214.674 48.2455 216.261 45.5659 218.09 42.4793C218.165 42.3523 218.241 42.2246 218.316 42.0961C220.302 38.7348 222.376 34.9506 222.376 28.0577C222.376 25.8692 220.602 24.4884 218.875 23.6447C217.049 22.7526 214.632 22.1288 212.121 21.6834C207.069 20.7875 201.196 20.5408 197.77 20.5408C173.92 20.5408 154.462 35.6086 141.049 63.0142C127.649 90.393 120.147 130.294 120.147 180.62V293.865V295.371L121.654 295.365Z" stroke="#94034B" stroke-width="3"/>
<path d="M362.304 303.559C362.304 310.443 360.344 317.169 356.678 322.884C353.012 328.598 347.808 333.042 341.732 335.664C335.656 338.285 328.974 338.971 322.528 337.636C316.082 336.3 310.152 333.002 305.491 328.148C300.83 323.293 297.65 317.1 296.361 310.349C295.072 303.598 295.734 296.602 298.261 290.246C300.788 283.891 305.064 278.468 310.538 274.658C316.012 270.849 322.441 268.819 329.011 268.819C337.821 268.819 346.283 272.464 352.532 278.973C358.782 285.484 362.304 294.326 362.304 303.559Z" stroke="#94034B" stroke-width="3"/>
</g>
</svg>
