<svg width="143" height="729" viewBox="0 0 143 729" fill="none" xmlns="http://www.w3.org/2000/svg">
<mask id="path-1-outside-1_5646_417" maskUnits="userSpaceOnUse" x="-2.3535" y="-1.54102" width="147" height="732" fill="black">
<rect fill="white" x="-2.3535" y="-1.54102" width="147" height="732"/>
<path d="M2.6465 0.683543H7.44268V16.6028H77.4466V0.887636H82.2428V16.6028H92.7536C109.149 16.6028 121.463 19.3581 129.694 24.8686C137.926 30.3791 142.042 38.5428 142.042 49.3597C142.042 55.0063 140.92 59.5644 138.675 63.034C136.43 66.5036 133.504 68.2384 129.899 68.2384C127.517 68.2384 125.579 67.558 124.082 66.1974C122.653 64.8368 121.939 63.068 121.939 60.891C121.939 58.3058 122.687 56.2309 124.184 54.6662C125.681 53.1015 127.654 52.3191 130.103 52.3191C130.715 52.3191 131.429 52.3871 132.246 52.5232C133.13 52.6592 133.674 52.7273 133.878 52.7273C134.967 52.7273 135.783 52.2511 136.327 51.2986C136.94 50.4142 137.246 49.1557 137.246 47.5229C137.246 42.2845 134.287 38.5088 128.368 36.1957C122.517 33.8827 112.653 32.7262 98.7743 32.7262H82.2428V48.9516H77.4466V32.7262H7.44268V48.3393H2.6465V0.683543ZM44.4856 115.486C44.4856 103.853 42.7168 94.9405 39.1792 88.7497C35.7096 82.6269 30.6413 79.5655 23.9742 79.5655C19.2121 79.5655 15.4023 80.9942 12.545 83.8515C9.68771 86.7088 8.25906 90.5185 8.25906 95.2807C8.25906 101.199 9.78975 106.03 12.8512 109.771C15.9125 113.581 19.8924 115.486 24.7906 115.486H44.4856ZM13.7696 115.996C9.61968 113.343 6.28616 109.329 3.76901 103.955C1.31989 98.6482 0.0953329 92.8996 0.0953329 86.7088C0.0953329 79.6336 1.79611 74.021 5.19766 69.8711C8.59921 65.7892 13.1233 63.7483 18.7699 63.7483C28.0901 63.7483 35.4375 68.3064 40.8119 77.4225C46.1864 86.6067 48.9416 99.2945 49.0777 115.486H68.6706C72.6844 115.486 75.6438 114.125 77.5487 111.404C79.4535 108.751 80.406 104.635 80.406 99.0564C80.406 94.6344 79.6236 90.7226 78.0589 87.3211C76.4942 83.9875 74.8954 82.3208 73.2627 82.3208C72.9906 82.3208 71.9021 83.2732 69.9972 85.1781C68.1604 87.151 66.0514 88.1374 63.6703 88.1374C61.0852 88.1374 58.9762 87.3551 57.3434 85.7904C55.7107 84.2256 54.8943 82.2187 54.8943 79.7696C54.8943 77.0484 55.7787 74.9054 57.5475 73.3407C59.3163 71.776 61.6974 70.9936 64.6908 70.9936C70.3374 70.9936 75.0315 74.055 78.7732 80.1778C82.5149 86.3006 84.3858 94.1922 84.3858 103.853C84.3858 114.057 82.753 121.235 79.4875 125.384C76.2901 129.534 70.5415 131.609 62.2417 131.609H16.6269C13.4294 131.609 11.3205 131.915 10.3 132.528C9.34755 133.14 8.87134 134.228 8.87134 135.793C8.87134 137.494 9.55165 139.025 10.9123 140.385C12.3409 141.746 14.1097 142.664 16.2187 143.141V146.508C11.4565 146.1 7.61276 144.297 4.68743 141.1C1.76209 137.97 0.299426 134.058 0.299426 129.364C0.299426 125.35 1.42194 122.221 3.66696 119.976C5.91199 117.731 9.27952 116.404 13.7696 115.996ZM2.6465 157.631H29.5868V162.631C21.8993 164.672 15.9466 168.21 11.7286 173.244C7.51072 178.279 5.40175 184.299 5.40175 191.306C5.40175 197.293 6.93245 202.123 9.99385 205.797C13.0552 209.471 17.0691 211.308 22.0353 211.308C27.6819 211.308 31.7978 204.539 34.383 191C34.9272 188.347 35.3694 186.272 35.7096 184.776C37.8866 174.367 40.7099 167.258 44.1794 163.448C47.7171 159.706 52.8194 157.835 59.4864 157.835C66.8338 157.835 72.8205 160.318 77.4466 165.285C82.0727 170.251 84.3858 176.68 84.3858 184.571C84.3858 189.061 83.7735 193.007 82.5489 196.409C81.3924 199.878 79.6916 202.634 77.4466 204.675L82.8551 208.858V211.716H59.6905V207.328C66.3576 205.899 71.4259 203.246 74.8954 199.368C78.4331 195.49 80.2019 190.558 80.2019 184.571C80.2019 179.061 78.8412 174.571 76.12 171.101C73.3988 167.7 69.8612 165.999 65.5072 165.999C59.9286 165.999 55.7107 173.925 52.8534 189.776C52.3772 192.429 52.003 194.47 51.7309 195.899C50.3022 203.926 47.581 209.913 43.5672 213.859C39.6214 217.873 34.349 219.88 27.7499 219.88C19.2461 219.88 12.511 217.124 7.54473 211.614C2.57847 206.171 0.0953329 198.756 0.0953329 189.368C0.0953329 185.082 0.911705 181 2.54445 177.122C4.17719 173.312 6.5923 169.809 9.78975 166.611L2.6465 161.815V157.631ZM2.6465 234.268H7.44268V245.187H135.817V234.472H139.899C140.035 238.962 140.273 243.418 140.613 247.84C140.954 252.262 141.43 256.786 142.042 261.412H61.8335C69.3169 264.474 74.9635 268.59 78.7732 273.76C82.651 278.998 84.5899 285.155 84.5899 292.231C84.5899 299.51 82.617 305.19 78.6712 309.272C74.7254 313.354 69.2489 315.395 62.2417 315.395H7.44268V326.212H2.6465V287.536H7.44268V299.476H62.854C68.0923 299.476 71.9701 298.421 74.4873 296.312C77.0044 294.203 78.263 290.938 78.263 286.516C78.263 279.849 74.8274 273.998 67.9563 268.964C61.0852 263.93 52.9554 261.412 43.5672 261.412H7.44268V272.331H2.6465V234.268ZM125.102 350.703C127.96 350.703 130.375 351.724 132.348 353.765C134.321 355.806 135.307 358.289 135.307 361.214C135.307 364.071 134.287 366.52 132.246 368.561C130.273 370.602 127.892 371.623 125.102 371.623C122.245 371.623 119.796 370.602 117.755 368.561C115.714 366.52 114.694 364.071 114.694 361.214C114.694 358.289 115.714 355.806 117.755 353.765C119.796 351.724 122.245 350.703 125.102 350.703ZM2.6465 338.56H7.44268V352.642H78.0589V339.274H82.4469V343.254C82.4469 347.676 82.617 352.03 82.9571 356.316C83.2973 360.67 83.7735 364.786 84.3858 368.663H7.44268V380.807H2.6465V338.56ZM42.3426 395.706C54.18 395.706 64.1465 399.549 72.2422 407.237C80.3379 414.993 84.3858 424.483 84.3858 435.708C84.3858 447.137 80.406 456.593 72.4463 464.077C64.4867 471.628 54.5202 475.404 42.5467 475.404C30.7773 475.404 20.7768 471.492 12.545 463.669C4.38129 455.913 0.299426 446.525 0.299426 435.504C0.299426 424.075 4.27924 414.584 12.2389 407.033C20.2665 399.481 30.3011 395.706 42.3426 395.706ZM42.3426 414.993C27.2397 414.993 17.1031 416.523 11.9327 419.585C6.8304 422.646 4.27924 427.952 4.27924 435.504C4.27924 442.987 7.00048 448.294 12.443 451.423C17.8854 454.553 27.784 456.117 42.1385 456.117C57.3775 456.117 67.4801 454.587 72.4463 451.525C77.4806 448.532 79.9978 443.259 79.9978 435.708C79.9978 428.088 77.3446 422.714 72.0381 419.585C66.7317 416.523 56.8332 414.993 42.3426 414.993ZM2.6465 487.344H7.44268V498.467H78.0589V487.139H82.4469V490.915C82.4469 495.133 82.617 499.215 82.9571 503.161C83.2973 507.107 83.7735 510.814 84.3858 514.284L61.1192 514.386C68.8067 517.379 74.5893 521.461 78.4671 526.631C82.4129 531.87 84.3858 538.095 84.3858 545.306C84.3858 552.585 82.4469 558.266 78.5691 562.348C74.6914 566.43 69.2489 568.471 62.2417 568.471H7.44268V579.389H2.6465V540.714H7.44268V552.551H62.854C68.0923 552.551 71.9701 551.497 74.4873 549.388C77.0044 547.279 78.263 544.013 78.263 539.591C78.263 532.856 74.8954 527.04 68.1604 522.141C61.4253 517.243 53.2276 514.794 43.5672 514.794H7.44268V525.815H2.6465V487.344ZM17.0351 600.309H78.0589V588.574H82.4469V600.309H107.754C107.686 600.989 107.618 601.704 107.55 602.452C107.55 603.2 107.55 604.289 107.55 605.718C107.55 607.758 107.618 609.629 107.754 611.33C107.89 613.031 108.095 614.562 108.367 615.922H82.4469V634.597H78.0589V615.922H18.9739C14.2798 615.922 11.1844 616.466 9.68771 617.555C8.19103 618.711 7.44268 620.82 7.44268 623.882C7.44268 625.787 8.05496 627.658 9.27952 629.494C10.5721 631.399 12.477 633.304 14.9941 635.209L12.443 638.474C8.02095 635.277 4.8575 631.978 2.95264 628.576C1.04777 625.242 0.0953329 621.297 0.0953329 616.739C0.0953329 611.092 1.45595 606.942 4.17719 604.289C6.96647 601.636 11.2524 600.309 17.0351 600.309ZM0.0953329 683.171L78.0589 655.312V645.516H82.4469V682.967H78.0589V671.844L21.6272 692.151L78.0589 713.479V700.009H82.4469V728.684H78.0589V719.091L0.0953329 689.6V683.171Z"/>
</mask>
<path d="M2.6465 0.683543V-1.05805H0.904904V0.683543H2.6465ZM7.44268 0.683543H9.18428V-1.05805H7.44268V0.683543ZM7.44268 16.6028H5.70109V18.3444H7.44268V16.6028ZM77.4466 16.6028V18.3444H79.1882V16.6028H77.4466ZM77.4466 0.887636V-0.853958H75.705V0.887636H77.4466ZM82.2428 0.887636H83.9844V-0.853958H82.2428V0.887636ZM82.2428 16.6028H80.5012V18.3444H82.2428V16.6028ZM124.082 66.1974L122.881 67.4586L122.895 67.4725L122.91 67.4861L124.082 66.1974ZM132.246 52.5232L131.959 54.2411L131.97 54.2429L131.981 54.2445L132.246 52.5232ZM136.327 51.2986L134.896 50.3073L134.853 50.3692L134.815 50.4346L136.327 51.2986ZM128.368 36.1957L127.728 37.8154L127.734 37.8179L128.368 36.1957ZM82.2428 32.7262V30.9846H80.5012V32.7262H82.2428ZM82.2428 48.9516V50.6932H83.9844V48.9516H82.2428ZM77.4466 48.9516H75.705V50.6932H77.4466V48.9516ZM77.4466 32.7262H79.1882V30.9846H77.4466V32.7262ZM7.44268 32.7262V30.9846H5.70109V32.7262H7.44268ZM7.44268 48.3393V50.0809H9.18428V48.3393H7.44268ZM2.6465 48.3393H0.904904V50.0809H2.6465V48.3393ZM2.6465 2.42514H7.44268V-1.05805H2.6465V2.42514ZM5.70109 0.683543V16.6028H9.18428V0.683543H5.70109ZM7.44268 18.3444H77.4466V14.8612H7.44268V18.3444ZM79.1882 16.6028V0.887636H75.705V16.6028H79.1882ZM77.4466 2.62923H82.2428V-0.853958H77.4466V2.62923ZM80.5012 0.887636V16.6028H83.9844V0.887636H80.5012ZM82.2428 18.3444H92.7536V14.8612H82.2428V18.3444ZM92.7536 18.3444C109.008 18.3444 120.913 21.0857 128.726 26.3158L130.663 23.4213C122.013 17.6304 109.29 14.8612 92.7536 14.8612V18.3444ZM128.726 26.3158C136.424 31.4695 140.3 39.0608 140.3 49.3597H143.784C143.784 38.0248 139.428 29.2887 130.663 23.4213L128.726 26.3158ZM140.3 49.3597C140.3 54.7897 139.22 58.9858 137.212 62.0879L140.137 63.9801C142.62 60.143 143.784 55.2229 143.784 49.3597H140.3ZM137.212 62.0879C135.233 65.1464 132.819 66.4968 129.899 66.4968V69.9799C134.189 69.9799 137.626 67.8607 140.137 63.9801L137.212 62.0879ZM129.899 66.4968C127.869 66.4968 126.374 65.9274 125.253 64.9087L122.91 67.4861C124.783 69.1887 127.166 69.9799 129.899 69.9799V66.4968ZM125.283 64.9363C124.237 63.9402 123.681 62.6459 123.681 60.891H120.197C120.197 63.4901 121.069 65.7334 122.881 67.4586L125.283 64.9363ZM123.681 60.891C123.681 58.6617 124.314 57.0493 125.442 55.87L122.925 53.4623C121.06 55.4124 120.197 57.9499 120.197 60.891H123.681ZM125.442 55.87C126.566 54.6952 128.06 54.0607 130.103 54.0607V50.5775C127.247 50.5775 124.795 51.5077 122.925 53.4623L125.442 55.87ZM130.103 54.0607C130.592 54.0607 131.207 54.1157 131.959 54.2411L132.532 50.8053C131.652 50.6586 130.838 50.5775 130.103 50.5775V54.0607ZM131.981 54.2445C132.808 54.3717 133.509 54.4689 133.878 54.4689V50.9857C133.9 50.9857 133.814 50.9833 133.533 50.9481C133.284 50.917 132.945 50.8687 132.51 50.8018L131.981 54.2445ZM133.878 54.4689C135.598 54.4689 136.988 53.6525 137.84 52.1627L134.815 50.4346C134.578 50.8496 134.336 50.9857 133.878 50.9857V54.4689ZM137.759 52.29C138.653 50.9992 138.987 49.3379 138.987 47.5229H135.504C135.504 48.9734 135.227 49.8292 134.896 50.3073L137.759 52.29ZM138.987 47.5229C138.987 44.5523 138.14 41.9111 136.397 39.688C134.673 37.4877 132.16 35.8078 129.002 34.5736L127.734 37.8179C130.495 38.8967 132.421 40.2612 133.656 41.8367C134.873 43.3893 135.504 45.2551 135.504 47.5229H138.987ZM129.008 34.5761C122.826 32.132 112.671 30.9846 98.7743 30.9846V34.4678C112.634 34.4678 122.208 35.6333 127.728 37.8154L129.008 34.5761ZM98.7743 30.9846H82.2428V34.4678H98.7743V30.9846ZM80.5012 32.7262V48.9516H83.9844V32.7262H80.5012ZM82.2428 47.21H77.4466V50.6932H82.2428V47.21ZM79.1882 48.9516V32.7262H75.705V48.9516H79.1882ZM77.4466 30.9846H7.44268V34.4678H77.4466V30.9846ZM5.70109 32.7262V48.3393H9.18428V32.7262H5.70109ZM7.44268 46.5977H2.6465V50.0809H7.44268V46.5977ZM4.38809 48.3393V0.683543H0.904904V48.3393H4.38809ZM44.4856 115.486V117.228H46.2272V115.486H44.4856ZM39.1792 88.7497L37.6639 89.6083L37.667 89.6138L39.1792 88.7497ZM12.8511 109.771L14.2087 108.68L14.2039 108.674L14.1991 108.668L12.8511 109.771ZM13.7696 115.996L13.9272 117.731L18.995 117.27L14.7077 114.529L13.7696 115.996ZM3.76901 103.955L2.18768 104.684L2.19183 104.693L3.76901 103.955ZM5.19766 69.8711L3.85969 68.7561L3.85072 68.7671L5.19766 69.8711ZM40.8119 77.4225L42.3151 76.5429L42.3122 76.5381L40.8119 77.4225ZM49.0777 115.486L47.3361 115.501L47.3507 117.228H49.0777V115.486ZM77.5487 111.404L76.1339 110.388L76.1279 110.397L76.1219 110.405L77.5487 111.404ZM78.0589 87.3211L79.6412 86.5932L79.6354 86.581L78.0589 87.3211ZM69.9972 85.1781L68.7657 83.9466L68.7437 83.9686L68.7226 83.9913L69.9972 85.1781ZM79.4875 125.384L78.1189 124.307L78.1134 124.314L78.108 124.321L79.4875 125.384ZM10.3 132.528L9.40394 131.034L9.38086 131.048L9.35821 131.063L10.3 132.528ZM10.9123 140.385L9.68077 141.617L9.69578 141.632L9.71116 141.646L10.9123 140.385ZM16.2187 143.141H17.9603V141.748L16.6023 141.442L16.2187 143.141ZM16.2187 146.508L16.07 148.243L17.9603 148.405V146.508H16.2187ZM4.68742 141.1L5.97238 139.924L5.96608 139.917L5.95971 139.91L4.68742 141.1ZM46.2272 115.486C46.2272 103.721 44.446 94.4564 40.6913 87.8856L37.667 89.6138C40.9875 95.4247 42.744 103.985 42.744 115.486H46.2272ZM40.6944 87.8911C36.9367 81.2599 31.3103 77.8239 23.9742 77.8239V81.3071C29.9723 81.3071 34.4824 83.9939 37.6639 89.6083L40.6944 87.8911ZM23.9742 77.8239C18.8389 77.8239 14.5552 79.3783 11.3135 82.62L13.7765 85.083C16.2494 82.6101 19.5852 81.3071 23.9742 81.3071V77.8239ZM11.3135 82.62C8.07179 85.8617 6.51747 90.1454 6.51747 95.2807H10.0007C10.0007 90.8917 11.3036 87.5558 13.7765 85.083L11.3135 82.62ZM6.51747 95.2807C6.51747 101.508 8.13392 106.756 11.5032 110.874L14.1991 108.668C11.4456 105.303 10.0007 100.891 10.0007 95.2807H6.51747ZM11.4936 110.862C14.8864 115.084 19.366 117.228 24.7906 117.228V113.744C20.4187 113.744 16.9387 112.078 14.2087 108.68L11.4936 110.862ZM24.7906 117.228H44.4856V113.744H24.7906V117.228ZM14.7077 114.529C10.8877 112.087 7.75242 108.354 5.34619 103.216L2.19183 104.693C4.81988 110.305 8.35162 114.599 12.8314 117.463L14.7077 114.529ZM5.35031 103.225C3.013 98.1607 1.83693 92.6628 1.83693 86.7088H-1.64626C-1.64626 93.1364 -0.373218 99.1358 2.18771 104.684L5.35031 103.225ZM1.83693 86.7088C1.83693 79.9068 3.46966 74.7266 6.5446 70.9751L3.85072 68.7671C0.122556 73.3154 -1.64626 79.3603 -1.64626 86.7088H1.83693ZM6.5356 70.986C9.58323 67.3289 13.6031 65.4899 18.7698 65.4899V62.0067C12.6435 62.0067 7.61519 64.2496 3.85972 68.7562L6.5356 70.986ZM18.7698 65.4899C27.3798 65.4899 34.1996 69.6359 39.3116 78.307L42.3122 76.5381C36.6753 66.9768 28.8004 62.0067 18.7698 62.0067V65.4899ZM39.3088 78.3022C44.4696 87.1214 47.2014 99.4674 47.3361 115.501L50.8192 115.471C50.6818 99.1217 47.9031 86.0921 42.315 76.5429L39.3088 78.3022ZM49.0777 117.228H68.6706V113.744H49.0777V117.228ZM68.6706 117.228C73.1182 117.228 76.6745 115.69 78.9754 112.403L76.1219 110.405C74.6131 112.561 72.2506 113.744 68.6706 113.744V117.228ZM78.9634 112.42C81.1845 109.326 82.1476 104.768 82.1476 99.0564H78.6644C78.6644 104.502 77.7225 108.176 76.1339 110.388L78.9634 112.42ZM82.1476 99.0564C82.1476 94.4281 81.3281 90.2607 79.6411 86.5932L76.4767 88.0489C77.9191 91.1845 78.6644 94.8407 78.6644 99.0564H82.1476ZM79.6354 86.581C78.8145 84.8321 77.928 83.392 76.9432 82.3653C75.9539 81.3339 74.7221 80.5792 73.2627 80.5792V84.0624C73.4361 84.0624 73.82 84.141 74.4294 84.7764C75.0434 85.4165 75.7386 86.4765 76.4823 88.0611L79.6354 86.581ZM73.2627 80.5792C72.806 80.5792 72.4561 80.7514 72.3435 80.8077C72.1777 80.8906 72.0277 80.9879 71.9068 81.0726C71.6612 81.2445 71.3857 81.4704 71.0954 81.7244C70.5072 82.2391 69.7265 82.9858 68.7657 83.9466L71.2287 86.4096C72.1728 85.4655 72.8888 84.7835 73.3891 84.3458C73.643 84.1236 73.8097 83.9923 73.9043 83.9261C73.9534 83.8917 73.948 83.8998 73.9013 83.9232C73.8766 83.9355 73.8171 83.9639 73.7302 83.9915C73.6515 84.0166 73.485 84.0624 73.2627 84.0624V80.5792ZM68.7226 83.9913C67.1672 85.6619 65.5018 86.3958 63.6703 86.3958V89.879C66.6011 89.879 69.1535 88.6401 71.2719 86.3648L68.7226 83.9913ZM63.6703 86.3958C61.4648 86.3958 59.8101 85.742 58.5485 84.533L56.1384 87.0478C58.1423 88.9681 60.7055 89.879 63.6703 89.879V86.3958ZM58.5485 84.533C57.2888 83.3258 56.6359 81.7878 56.6359 79.7696H53.1527C53.1527 82.6497 54.1325 85.1255 56.1384 87.0478L58.5485 84.533ZM56.6359 79.7696C56.6359 77.4633 57.365 75.8274 58.7015 74.6451L56.3936 72.0362C54.1925 73.9834 53.1527 76.6335 53.1527 79.7696H56.6359ZM58.7015 74.6451C60.0737 73.4312 62.0051 72.7352 64.6908 72.7352V69.252C61.3897 69.252 58.559 70.1207 56.3936 72.0362L58.7015 74.6451ZM64.6908 72.7352C69.5636 72.7352 73.7636 75.3202 77.2871 81.086L80.2593 79.2696C76.2994 72.7898 71.1112 69.252 64.6908 69.252V72.7352ZM77.2871 81.086C80.8134 86.8562 82.6442 94.4052 82.6442 103.853H86.1274C86.1274 93.9792 84.2164 85.745 80.2593 79.2696L77.2871 81.086ZM82.6442 103.853C82.6442 113.978 81.0028 120.642 78.1189 124.307L80.8562 126.461C84.5032 121.827 86.1274 114.136 86.1274 103.853H82.6442ZM78.108 124.321C75.3951 127.842 70.3195 129.868 62.2417 129.868V133.351C70.7634 133.351 77.185 131.226 80.8671 126.447L78.108 124.321ZM62.2417 129.868H16.6269V133.351H62.2417V129.868ZM16.6269 129.868C14.9814 129.868 13.5642 129.946 12.3969 130.115C11.2659 130.28 10.2111 130.55 9.40394 131.034L11.196 134.021C11.4093 133.893 11.9192 133.704 12.8972 133.562C13.8389 133.426 15.0749 133.351 16.6269 133.351V129.868ZM9.35821 131.063C7.72874 132.11 7.12974 133.885 7.12974 135.793H10.6129C10.6129 134.572 10.9664 134.17 11.2418 133.993L9.35821 131.063ZM7.12974 135.793C7.12974 138.018 8.04029 139.976 9.68077 141.617L12.1438 139.154C11.063 138.073 10.6129 136.97 10.6129 135.793H7.12974ZM9.71116 141.646C11.3893 143.245 13.4494 144.301 15.8351 144.839L16.6023 141.442C14.77 141.028 13.2925 140.247 12.1134 139.124L9.71116 141.646ZM14.4771 143.141V146.508H17.9603V143.141H14.4771ZM16.3674 144.773C11.9922 144.398 8.57129 142.765 5.97238 139.924L3.40246 142.275C6.65423 145.829 10.9208 147.802 16.07 148.243L16.3674 144.773ZM5.95971 139.91C3.36598 137.136 2.04103 133.663 2.04103 129.364H-1.44217C-1.44217 134.454 0.158215 138.805 3.41514 142.289L5.95971 139.91ZM2.04103 129.364C2.04103 125.684 3.06085 123.045 4.89845 121.207L2.43547 118.744C-0.216968 121.397 -1.44217 125.017 -1.44217 129.364H2.04103ZM4.89845 121.207C6.75537 119.351 9.67532 118.117 13.9272 117.731L13.6119 114.262C8.88372 114.692 5.06862 116.111 2.43547 118.744L4.89845 121.207ZM2.6465 157.631V155.89H0.904904V157.631H2.6465ZM29.5868 157.631H31.3284V155.89H29.5868V157.631ZM29.5868 162.631L30.0337 164.315L31.3284 163.971V162.631H29.5868ZM34.383 191L32.6769 190.65L32.6745 190.662L32.6723 190.674L34.383 191ZM35.7096 184.776L37.4079 185.161L37.4112 185.147L37.4143 185.132L35.7096 184.776ZM44.1794 163.448L42.9139 162.251L42.9028 162.263L42.8918 162.275L44.1794 163.448ZM82.5489 196.409L80.9103 195.819L80.9033 195.838L80.8967 195.858L82.5489 196.409ZM77.4466 204.675L76.2751 203.386L74.7393 204.782L76.381 206.052L77.4466 204.675ZM82.8551 208.858H84.5967V208.004L83.9207 207.481L82.8551 208.858ZM82.8551 211.716V213.457H84.5967V211.716H82.8551ZM59.6905 211.716H57.9489V213.457H59.6905V211.716ZM59.6905 207.328L59.3256 205.625L57.9489 205.92V207.328H59.6905ZM74.8955 199.368L73.6088 198.194L73.6031 198.201L73.5975 198.207L74.8955 199.368ZM76.12 171.101L77.4904 170.026L77.4852 170.02L77.48 170.013L76.12 171.101ZM52.8534 189.776L51.1394 189.467L51.1392 189.468L52.8534 189.776ZM51.7309 195.899L50.02 195.573L50.0181 195.583L50.0162 195.593L51.7309 195.899ZM43.5672 213.859L42.3462 212.617L42.3356 212.627L42.3252 212.638L43.5672 213.859ZM7.54474 211.614L8.83848 210.448L8.83122 210.44L7.54474 211.614ZM2.54445 177.122L0.943646 176.436L0.939328 176.446L2.54445 177.122ZM9.78976 166.611L11.0213 167.843L12.5184 166.346L10.7606 165.165L9.78976 166.611ZM2.6465 161.815H0.904904V162.743L1.67567 163.261L2.6465 161.815ZM2.6465 159.373H29.5868V155.89H2.6465V159.373ZM27.8452 157.631V162.631H31.3284V157.631H27.8452ZM29.1399 160.948C21.1798 163.061 14.8873 166.762 10.3937 172.126L13.0636 174.363C17.0058 169.658 22.6188 166.283 30.0337 164.315L29.1399 160.948ZM10.3937 172.126C5.8947 177.496 3.66015 183.92 3.66015 191.306H7.14335C7.14335 184.679 9.12674 179.062 13.0636 174.363L10.3937 172.126ZM3.66015 191.306C3.66015 197.595 5.2733 202.853 8.65591 206.912L11.3318 204.682C8.59161 201.394 7.14335 196.991 7.14335 191.306H3.66015ZM8.65591 206.912C12.0626 211 16.5751 213.049 22.0353 213.049V209.566C17.563 209.566 14.0479 207.942 11.3318 204.682L8.65591 206.912ZM22.0353 213.049C25.6959 213.049 28.6122 210.808 30.8453 207.136C33.0631 203.488 34.7865 198.172 36.0937 191.327L32.6723 190.674C31.3943 197.367 29.7672 202.204 27.8691 205.326C25.9862 208.423 24.0213 209.566 22.0353 209.566V213.049ZM36.089 191.35C36.6324 188.702 37.0717 186.64 37.4079 185.161L34.0113 184.39C33.6671 185.904 33.2221 187.993 32.6769 190.65L36.089 191.35ZM37.4143 185.132C39.5821 174.767 42.3332 168.062 45.4671 164.62L42.8918 162.275C39.0865 166.453 36.191 173.966 34.0049 184.419L37.4143 185.132ZM45.445 164.644C48.5638 161.345 53.1496 159.577 59.4864 159.577V156.094C52.4892 156.094 46.8703 158.067 42.9139 162.251L45.445 164.644ZM59.4864 159.577C66.395 159.577 71.9048 161.89 76.1722 166.472L78.721 164.098C73.7362 158.746 67.2726 156.094 59.4864 156.094V159.577ZM76.1722 166.472C80.4496 171.064 82.6442 177.044 82.6442 184.571H86.1274C86.1274 176.316 83.6958 169.438 78.721 164.098L76.1722 166.472ZM82.6442 184.571C82.6442 188.907 82.0525 192.646 80.9103 195.819L84.1876 196.999C85.4945 193.368 86.1274 189.216 86.1274 184.571H82.6442ZM80.8967 195.858C79.8152 199.103 78.2581 201.583 76.2751 203.386L78.6181 205.963C81.1252 203.684 82.9696 200.654 84.2012 196.96L80.8967 195.858ZM76.381 206.052L81.7894 210.236L83.9207 207.481L78.5122 203.297L76.381 206.052ZM81.1135 208.858V211.716H84.5967V208.858H81.1135ZM82.8551 209.974H59.6905V213.457H82.8551V209.974ZM61.4321 211.716V207.328H57.9489V211.716H61.4321ZM60.0554 209.031C66.9716 207.549 72.4115 204.756 76.1934 200.529L73.5975 198.207C70.4402 201.736 65.7436 204.25 59.3256 205.625L60.0554 209.031ZM76.1821 200.542C80.0537 196.298 81.9435 190.927 81.9435 184.571H78.4603C78.4603 190.189 76.8124 194.683 73.6088 198.194L76.1821 200.542ZM81.9435 184.571C81.9435 178.771 80.507 173.873 77.4904 170.026L74.7496 172.176C77.1755 175.269 78.4603 179.351 78.4603 184.571H81.9435ZM77.48 170.013C74.4284 166.199 70.3905 164.257 65.5072 164.257V167.741C69.3318 167.741 72.3691 169.201 74.76 172.189L77.48 170.013ZM65.5072 164.257C61.7416 164.257 58.8365 166.965 56.6224 171.125C54.3864 175.326 52.579 181.481 51.1394 189.467L54.5674 190.085C55.9851 182.22 57.7153 176.485 59.6972 172.761C61.7011 168.996 63.6942 167.741 65.5072 167.741V164.257ZM51.1392 189.468C50.6633 192.119 50.2904 194.153 50.02 195.573L53.4417 196.224C53.7156 194.787 54.091 192.739 54.5676 190.083L51.1392 189.468ZM50.0162 195.593C48.6237 203.418 46.0101 209.015 42.3462 212.617L44.7881 215.101C49.1519 210.811 51.9808 204.434 53.4455 196.204L50.0162 195.593ZM42.3252 212.638C38.7632 216.261 33.969 218.138 27.7499 218.138V221.621C34.729 221.621 40.4795 219.484 44.8091 215.08L42.3252 212.638ZM27.7499 218.138C19.6597 218.138 13.4246 215.537 8.83845 210.448L6.251 212.78C11.5974 218.712 18.8325 221.621 27.7499 221.621V218.138ZM8.83122 210.44C4.23141 205.399 1.83693 198.445 1.83693 189.368H-1.64626C-1.64626 199.067 0.925519 206.944 6.25824 212.788L8.83122 210.44ZM1.83693 189.368C1.83693 185.309 2.60861 181.458 4.14956 177.798L0.939328 176.446C-0.78519 180.542 -1.64626 184.854 -1.64626 189.368H1.83693ZM4.14523 177.808C5.68306 174.22 7.96615 170.898 11.0213 167.843L8.55825 165.38C5.21844 168.72 2.67132 172.405 0.943677 176.436L4.14523 177.808ZM10.7606 165.165L3.61732 160.369L1.67567 163.261L8.81894 168.057L10.7606 165.165ZM4.38809 161.815V157.631H0.904904V161.815H4.38809ZM2.6465 234.268V232.526H0.904904V234.268H2.6465ZM7.44268 234.268H9.18428V232.526H7.44268V234.268ZM7.44268 245.187H5.70109V246.929H7.44268V245.187ZM135.817 245.187V246.929H137.559V245.187H135.817ZM135.817 234.472V232.731H134.076V234.472H135.817ZM139.899 234.472L141.64 234.419L141.589 232.731H139.899V234.472ZM142.042 261.412V263.154H144.029L143.769 261.184L142.042 261.412ZM61.8335 261.412V259.671L61.1741 263.024L61.8335 261.412ZM78.7732 273.76L77.3711 274.793L77.3734 274.796L78.7732 273.76ZM7.44268 315.395V313.653H5.70109V315.395H7.44268ZM7.44268 326.212V327.954H9.18428V326.212H7.44268ZM2.6465 326.212H0.904904V327.954H2.6465V326.212ZM2.6465 287.536V285.795H0.904904V287.536H2.6465ZM7.44268 287.536H9.18428V285.795H7.44268V287.536ZM7.44268 299.476H5.70109V301.217H7.44268V299.476ZM7.44268 261.412V259.671H5.70109V261.412H7.44268ZM7.44268 272.331V274.073H9.18428V272.331H7.44268ZM2.6465 272.331H0.904904V274.073H2.6465V272.331ZM2.6465 236.01H7.44268V232.526H2.6465V236.01ZM5.70109 234.268V245.187H9.18428V234.268H5.70109ZM7.44268 246.929H135.817V243.445H7.44268V246.929ZM137.559 245.187V234.472H134.076V245.187H137.559ZM135.817 236.214H139.899V232.731H135.817V236.214ZM138.158 234.525C138.295 239.042 138.535 243.525 138.877 247.974L142.35 247.707C142.012 243.312 141.775 238.883 141.64 234.419L138.158 234.525ZM138.877 247.974C139.22 252.429 139.699 256.985 140.316 261.641L143.769 261.184C143.16 256.588 142.687 252.095 142.35 247.707L138.877 247.974ZM142.042 259.671H61.8335V263.154H142.042V259.671ZM61.1741 263.024C68.4374 265.996 73.7945 269.939 77.3711 274.793L80.1753 272.727C76.1325 267.24 70.1964 262.952 62.4929 259.801L61.1741 263.024ZM77.3734 274.796C81.0099 279.709 82.8483 285.495 82.8483 292.231H86.3315C86.3315 284.816 84.2921 278.288 80.173 272.724L77.3734 274.796ZM82.8483 292.231C82.8483 299.191 80.9693 304.389 77.419 308.062L79.9234 310.483C84.2646 305.992 86.3315 299.829 86.3315 292.231H82.8483ZM77.419 308.062C73.8751 311.728 68.8947 313.653 62.2417 313.653V317.137C69.6031 317.137 75.5756 314.98 79.9234 310.483L77.419 308.062ZM62.2417 313.653H7.44268V317.137H62.2417V313.653ZM5.70109 315.395V326.212H9.18428V315.395H5.70109ZM7.44268 324.47H2.6465V327.954H7.44268V324.47ZM4.38809 326.212V287.536H0.904904V326.212H4.38809ZM2.6465 289.278H7.44268V285.795H2.6465V289.278ZM5.70109 287.536V299.476H9.18428V287.536H5.70109ZM7.44268 301.217H62.854V297.734H7.44268V301.217ZM62.854 301.217C68.2726 301.217 72.6357 300.136 75.6058 297.647L73.3688 294.977C71.3045 296.707 67.9121 297.734 62.854 297.734V301.217ZM75.6058 297.647C78.643 295.103 80.0046 291.264 80.0046 286.516H76.5214C76.5214 290.612 75.3658 293.304 73.3688 294.977L75.6058 297.647ZM80.0046 286.516C80.0046 279.143 76.167 272.821 68.9856 267.559L66.927 270.369C73.4878 275.176 76.5214 280.555 76.5214 286.516H80.0046ZM68.9856 267.559C61.7853 262.284 53.2858 259.671 43.5672 259.671V263.154C52.6251 263.154 60.385 265.576 66.927 270.369L68.9856 267.559ZM43.5672 259.671H7.44268V263.154H43.5672V259.671ZM5.70109 261.412V272.331H9.18428V261.412H5.70109ZM7.44268 270.59H2.6465V274.073H7.44268V270.59ZM4.38809 272.331V234.268H0.904904V272.331H4.38809ZM132.246 368.561L131.014 367.33L131.004 367.34L130.993 367.351L132.246 368.561ZM2.6465 338.56V336.818H0.904904V338.56H2.6465ZM7.44268 338.56H9.18428V336.818H7.44268V338.56ZM7.44268 352.642H5.70109V354.384H7.44268V352.642ZM78.0589 352.642V354.384H79.8005V352.642H78.0589ZM78.0589 339.274V337.532H76.3173V339.274H78.0589ZM82.4469 339.274H84.1885V337.532H82.4469V339.274ZM82.9571 356.316L84.6934 356.18L84.6933 356.178L82.9571 356.316ZM84.3858 368.663V370.405H86.4239L86.1061 368.392L84.3858 368.663ZM7.44268 368.663V366.922H5.70109V368.663H7.44268ZM7.44268 380.807V382.549H9.18428V380.807H7.44268ZM2.6465 380.807H0.904904V382.549H2.6465V380.807ZM125.102 352.445C127.491 352.445 129.453 353.276 131.095 354.975L133.6 352.554C131.296 350.171 128.428 348.962 125.102 348.962V352.445ZM131.095 354.975C132.744 356.68 133.565 358.725 133.565 361.214H137.049C137.049 357.852 135.897 354.931 133.6 352.554L131.095 354.975ZM133.565 361.214C133.565 363.604 132.732 365.612 131.014 367.33L133.477 369.793C135.841 367.429 137.049 364.538 137.049 361.214H133.565ZM130.993 367.351C129.342 369.059 127.41 369.881 125.102 369.881V373.364C128.373 373.364 131.203 372.145 133.498 369.772L130.993 367.351ZM125.102 369.881C122.712 369.881 120.705 369.048 118.986 367.33L116.524 369.793C118.887 372.157 121.778 373.364 125.102 373.364V369.881ZM118.986 367.33C117.268 365.612 116.435 363.604 116.435 361.214H112.952C112.952 364.538 114.16 367.429 116.524 369.793L118.986 367.33ZM116.435 361.214C116.435 358.744 117.277 356.705 118.986 354.996L116.524 352.533C114.151 354.906 112.952 357.834 112.952 361.214H116.435ZM118.986 354.996C120.705 353.278 122.712 352.445 125.102 352.445V348.962C121.778 348.962 118.887 350.169 116.524 352.533L118.986 354.996ZM2.6465 340.301H7.44268V336.818H2.6465V340.301ZM5.70109 338.56V352.642H9.18428V338.56H5.70109ZM7.44268 354.384H78.0589V350.9H7.44268V354.384ZM79.8005 352.642V339.274H76.3173V352.642H79.8005ZM78.0589 341.016H82.4469V337.532H78.0589V341.016ZM80.7053 339.274V343.254H84.1885V339.274H80.7053ZM80.7053 343.254C80.7053 347.72 80.8771 352.12 81.221 356.454L84.6933 356.178C84.3568 351.939 84.1885 347.631 84.1885 343.254H80.7053ZM81.2208 356.451C81.5641 360.846 82.0454 365.007 82.6655 368.935L86.1061 368.392C85.5016 364.564 85.0304 360.494 84.6934 356.18L81.2208 356.451ZM84.3858 366.922H7.44268V370.405H84.3858V366.922ZM5.70109 368.663V380.807H9.18428V368.663H5.70109ZM7.44268 379.065H2.6465V382.549H7.44268V379.065ZM4.38809 380.807V338.56H0.904904V380.807H4.38809ZM72.2422 407.237L73.447 405.979L73.4415 405.974L72.2422 407.237ZM72.4463 464.077L71.2534 462.808L71.2477 462.813L72.4463 464.077ZM12.545 463.669L13.7448 462.406L13.7445 462.406L12.545 463.669ZM12.2389 407.033L11.0456 405.764L11.0402 405.769L12.2389 407.033ZM11.9327 419.585L11.0454 418.086L11.0367 418.091L11.9327 419.585ZM72.4463 451.525L71.5563 450.028L71.5443 450.035L71.5324 450.043L72.4463 451.525ZM72.0381 419.585L72.9228 418.084L72.9157 418.08L72.9085 418.076L72.0381 419.585ZM42.3426 397.447C53.7633 397.447 63.2918 401.14 71.043 408.5L73.4415 405.974C65.0013 397.959 54.5967 393.964 42.3426 393.964V397.447ZM71.0375 408.495C78.7897 415.921 82.6442 424.957 82.6442 435.708H86.1274C86.1274 424.009 81.8861 414.064 73.447 405.979L71.0375 408.495ZM82.6442 435.708C82.6442 446.682 78.8451 455.67 71.2534 462.808L73.6393 465.346C81.9668 457.516 86.1274 447.593 86.1274 435.708H82.6442ZM71.2477 462.813C63.6425 470.029 54.1186 473.662 42.5467 473.662V477.146C54.9217 477.146 65.3309 473.228 73.645 465.34L71.2477 462.813ZM42.5467 473.662C31.2059 473.662 21.6401 469.91 13.7448 462.406L11.3452 464.931C19.9135 473.074 30.3487 477.146 42.5467 477.146V473.662ZM13.7445 462.406C5.91842 454.971 2.04103 446.036 2.04103 435.504H-1.44217C-1.44217 447.014 2.84414 456.855 11.3455 464.931L13.7445 462.406ZM2.04103 435.504C2.04103 424.53 5.84047 415.504 13.4375 408.296L11.0402 405.769C2.71801 413.665 -1.44217 423.619 -1.44217 435.504H2.04103ZM13.4322 408.301C21.1056 401.083 30.6998 397.447 42.3426 397.447V393.964C29.9024 393.964 19.4275 397.88 11.0456 405.764L13.4322 408.301ZM42.3426 413.251C34.7408 413.251 28.3372 413.636 23.1529 414.418C17.9973 415.197 13.9132 416.388 11.0454 418.086L12.8201 421.083C15.1226 419.72 18.692 418.615 23.673 417.863C28.6253 417.115 34.8416 416.734 42.3426 416.734V413.251ZM11.0367 418.091C5.26558 421.554 2.53764 427.53 2.53764 435.504H6.02084C6.02084 428.375 8.39524 423.738 12.8288 421.078L11.0367 418.091ZM2.53764 435.504C2.53764 443.469 5.47944 449.428 11.5748 452.933L13.3111 449.913C8.52151 447.159 6.02084 442.506 6.02084 435.504H2.53764ZM11.5748 452.933C17.4557 456.314 27.7779 457.859 42.1385 457.859V454.376C27.79 454.376 18.3152 452.791 13.3111 449.913L11.5748 452.933ZM42.1385 457.859C49.8073 457.859 56.2371 457.474 61.4056 456.691C66.5405 455.913 70.5809 454.721 73.3602 453.008L71.5324 450.043C69.3455 451.391 65.8515 452.495 60.8838 453.247C55.9497 453.995 49.7087 454.376 42.1385 454.376V457.859ZM73.3364 453.022C79.0529 449.623 81.7394 443.67 81.7394 435.708H78.2562C78.2562 442.849 75.9083 447.44 71.5563 450.028L73.3364 453.022ZM81.7394 435.708C81.7394 427.642 78.892 421.605 72.9228 418.084L71.1534 421.085C75.7972 423.823 78.2562 428.535 78.2562 435.708H81.7394ZM72.9085 418.076C69.9877 416.391 65.9449 415.199 60.9006 414.419C55.8339 413.636 49.6414 413.251 42.3426 413.251V416.734C49.5345 416.734 55.5364 417.114 60.3683 417.862C65.2225 418.612 68.7822 419.717 71.1678 421.093L72.9085 418.076ZM2.6465 487.344V485.602H0.904904V487.344H2.6465ZM7.44268 487.344H9.18428V485.602H7.44268V487.344ZM7.44268 498.467H5.70109V500.208H7.44268V498.467ZM78.0589 498.467V500.208H79.8005V498.467H78.0589ZM78.0589 487.139V485.398H76.3173V487.139H78.0589ZM82.4469 487.139H84.1885V485.398H82.4469V487.139ZM84.3858 514.284L84.3934 516.025L86.46 516.016L86.1009 513.981L84.3858 514.284ZM61.1192 514.386L61.1115 512.644L60.4872 516.009L61.1192 514.386ZM78.4671 526.631L77.0738 527.676L77.076 527.679L78.4671 526.631ZM7.44268 568.47V566.729H5.70109V568.47H7.44268ZM7.44268 579.389V581.131H9.18428V579.389H7.44268ZM2.6465 579.389H0.904904V581.131H2.6465V579.389ZM2.6465 540.714V538.972H0.904904V540.714H2.6465ZM7.44268 540.714H9.18428V538.972H7.44268V540.714ZM7.44268 552.551H5.70109V554.293H7.44268V552.551ZM7.44268 514.794V513.052H5.70109V514.794H7.44268ZM7.44268 525.815V527.557H9.18428V525.815H7.44268ZM2.6465 525.815H0.904904V527.557H2.6465V525.815ZM2.6465 489.085H7.44268V485.602H2.6465V489.085ZM5.70109 487.344V498.467H9.18428V487.344H5.70109ZM7.44268 500.208H78.0589V496.725H7.44268V500.208ZM79.8005 498.467V487.139H76.3173V498.467H79.8005ZM78.0589 488.881H82.4469V485.398H78.0589V488.881ZM80.7053 487.139V490.915H84.1885V487.139H80.7053ZM80.7053 490.915C80.7053 495.18 80.8773 499.312 81.222 503.31L84.6923 503.011C84.3567 499.118 84.1885 495.086 84.1885 490.915H80.7053ZM81.222 503.31C81.566 507.301 82.0484 511.06 82.6707 514.586L86.1009 513.981C85.4986 510.568 85.0285 506.912 84.6923 503.011L81.222 503.31ZM84.3781 512.542L61.1115 512.644L61.1268 516.127L84.3934 516.025L84.3781 512.542ZM60.4872 516.009C67.9547 518.916 73.4381 522.829 77.0738 527.676L79.8604 525.586C75.7405 520.093 69.6586 515.842 61.7511 512.763L60.4872 516.009ZM77.076 527.679C80.7715 532.585 82.6442 538.433 82.6442 545.306H86.1274C86.1274 537.756 84.0543 531.154 79.8582 525.584L77.076 527.679ZM82.6442 545.306C82.6442 552.274 80.7946 557.476 77.3065 561.148L79.8318 563.547C84.0992 559.055 86.1274 552.896 86.1274 545.306H82.6442ZM77.3065 561.148C73.8344 564.803 68.896 566.729 62.2417 566.729V570.212C69.6017 570.212 75.5483 568.056 79.8318 563.547L77.3065 561.148ZM62.2417 566.729H7.44268V570.212H62.2417V566.729ZM5.70109 568.47V579.389H9.18428V568.47H5.70109ZM7.44268 577.648H2.6465V581.131H7.44268V577.648ZM4.38809 579.389V540.714H0.904904V579.389H4.38809ZM2.6465 542.455H7.44268V538.972H2.6465V542.455ZM5.70109 540.714V552.551H9.18428V540.714H5.70109ZM7.44268 554.293H62.854V550.81H7.44268V554.293ZM62.854 554.293C68.2726 554.293 72.6357 553.211 75.6058 550.723L73.3688 548.053C71.3045 549.782 67.9121 550.81 62.854 550.81V554.293ZM75.6058 550.723C78.643 548.178 80.0046 544.339 80.0046 539.591H76.5214C76.5214 543.687 75.3658 546.38 73.3688 548.053L75.6058 550.723ZM80.0046 539.591C80.0046 532.166 76.2511 525.872 69.1847 520.733L67.136 523.55C73.5398 528.207 76.5214 533.546 76.5214 539.591H80.0046ZM69.1847 520.733C62.1062 515.585 53.5347 513.052 43.5672 513.052V516.536C52.9205 516.536 60.7444 518.901 67.136 523.55L69.1847 520.733ZM43.5672 513.052H7.44268V516.536H43.5672V513.052ZM5.70109 514.794V525.815H9.18428V514.794H5.70109ZM7.44268 524.073H2.6465V527.557H7.44268V524.073ZM4.38809 525.815V487.344H0.904904V525.815H4.38809ZM78.0589 600.309V602.051H79.8005V600.309H78.0589ZM78.0589 588.574V586.832H76.3173V588.574H78.0589ZM82.4469 588.574H84.1885V586.832H82.4469V588.574ZM82.4469 600.309H80.7053V602.051H82.4469V600.309ZM107.754 600.309L109.487 600.482L109.679 598.567H107.754V600.309ZM107.55 602.452L105.816 602.294L105.809 602.373V602.452H107.55ZM107.754 611.33L109.49 611.191L107.754 611.33ZM108.367 615.922V617.664H110.491L110.074 615.581L108.367 615.922ZM82.4469 615.922V614.181H80.7053V615.922H82.4469ZM82.4469 634.597V636.338H84.1885V634.597H82.4469ZM78.0589 634.597H76.3173V636.338H78.0589V634.597ZM78.0589 615.922H79.8005V614.181H78.0589V615.922ZM9.68771 617.555L8.66336 616.146L8.64286 616.161L8.62281 616.177L9.68771 617.555ZM9.27952 629.494L7.83043 630.46L7.83439 630.466L7.83839 630.472L9.27952 629.494ZM14.9941 635.209L16.3665 636.281L17.4554 634.887L16.0451 633.82L14.9941 635.209ZM12.443 638.474L11.4225 639.886L12.7823 640.869L13.8154 639.547L12.443 638.474ZM2.95263 628.576L4.4722 627.725L4.4685 627.718L4.46476 627.712L2.95263 628.576ZM4.1772 604.289L2.97686 603.027L2.96908 603.034L2.96139 603.042L4.1772 604.289ZM17.0351 602.051H78.0589V598.567H17.0351V602.051ZM79.8005 600.309V588.574H76.3173V600.309H79.8005ZM78.0589 590.315H82.4469V586.832H78.0589V590.315ZM80.7053 588.574V600.309H84.1885V588.574H80.7053ZM82.4469 602.051H107.754V598.567H82.4469V602.051ZM106.021 600.136C105.953 600.822 105.884 601.541 105.816 602.294L109.285 602.61C109.352 601.866 109.42 601.157 109.487 600.482L106.021 600.136ZM105.809 602.452C105.809 602.454 105.809 602.455 105.809 602.456C105.809 602.458 105.809 602.459 105.809 602.461C105.809 602.462 105.809 602.464 105.809 602.465C105.809 602.467 105.809 602.468 105.809 602.47C105.809 602.471 105.809 602.473 105.809 602.474C105.809 602.476 105.809 602.477 105.809 602.478C105.809 602.48 105.809 602.481 105.809 602.483C105.809 602.484 105.809 602.486 105.809 602.487C105.809 602.489 105.809 602.49 105.809 602.492C105.809 602.493 105.809 602.495 105.809 602.496C105.809 602.498 105.809 602.499 105.809 602.501C105.809 602.502 105.809 602.504 105.809 602.505C105.809 602.507 105.809 602.508 105.809 602.51C105.809 602.511 105.809 602.513 105.809 602.514C105.809 602.516 105.809 602.517 105.809 602.519C105.809 602.52 105.809 602.522 105.809 602.523C105.809 602.525 105.809 602.526 105.809 602.528C105.809 602.529 105.809 602.531 105.809 602.532C105.809 602.534 105.809 602.535 105.809 602.537C105.809 602.538 105.809 602.54 105.809 602.541C105.809 602.543 105.809 602.544 105.809 602.546C105.809 602.547 105.809 602.549 105.809 602.55C105.809 602.552 105.809 602.553 105.809 602.555C105.809 602.556 105.809 602.558 105.809 602.56C105.809 602.561 105.809 602.563 105.809 602.564C105.809 602.566 105.809 602.567 105.809 602.569C105.809 602.57 105.809 602.572 105.809 602.573C105.809 602.575 105.809 602.576 105.809 602.578C105.809 602.579 105.809 602.581 105.809 602.582C105.809 602.584 105.809 602.586 105.809 602.587C105.809 602.589 105.809 602.59 105.809 602.592C105.809 602.593 105.809 602.595 105.809 602.596C105.809 602.598 105.809 602.599 105.809 602.601C105.809 602.603 105.809 602.604 105.809 602.606C105.809 602.607 105.809 602.609 105.809 602.61C105.809 602.612 105.809 602.613 105.809 602.615C105.809 602.616 105.809 602.618 105.809 602.62C105.809 602.621 105.809 602.623 105.809 602.624C105.809 602.626 105.809 602.627 105.809 602.629C105.809 602.631 105.809 602.632 105.809 602.634C105.809 602.635 105.809 602.637 105.809 602.638C105.809 602.64 105.809 602.642 105.809 602.643C105.809 602.645 105.809 602.646 105.809 602.648C105.809 602.649 105.809 602.651 105.809 602.652C105.809 602.654 105.809 602.656 105.809 602.657C105.809 602.659 105.809 602.66 105.809 602.662C105.809 602.664 105.809 602.665 105.809 602.667C105.809 602.668 105.809 602.67 105.809 602.671C105.809 602.673 105.809 602.675 105.809 602.676C105.809 602.678 105.809 602.679 105.809 602.681C105.809 602.683 105.809 602.684 105.809 602.686C105.809 602.687 105.809 602.689 105.809 602.691C105.809 602.692 105.809 602.694 105.809 602.695C105.809 602.697 105.809 602.699 105.809 602.7C105.809 602.702 105.809 602.703 105.809 602.705C105.809 602.707 105.809 602.708 105.809 602.71C105.809 602.711 105.809 602.713 105.809 602.715C105.809 602.716 105.809 602.718 105.809 602.719C105.809 602.721 105.809 602.723 105.809 602.724C105.809 602.726 105.809 602.728 105.809 602.729C105.809 602.731 105.809 602.732 105.809 602.734C105.809 602.736 105.809 602.737 105.809 602.739C105.809 602.741 105.809 602.742 105.809 602.744C105.809 602.745 105.809 602.747 105.809 602.749C105.809 602.75 105.809 602.752 105.809 602.754C105.809 602.755 105.809 602.757 105.809 602.758C105.809 602.76 105.809 602.762 105.809 602.763C105.809 602.765 105.809 602.767 105.809 602.768C105.809 602.77 105.809 602.772 105.809 602.773C105.809 602.775 105.809 602.776 105.809 602.778C105.809 602.78 105.809 602.781 105.809 602.783C105.809 602.785 105.809 602.786 105.809 602.788C105.809 602.79 105.809 602.791 105.809 602.793C105.809 602.795 105.809 602.796 105.809 602.798C105.809 602.799 105.809 602.801 105.809 602.803C105.809 602.804 105.809 602.806 105.809 602.808C105.809 602.809 105.809 602.811 105.809 602.813C105.809 602.814 105.809 602.816 105.809 602.818C105.809 602.819 105.809 602.821 105.809 602.823C105.809 602.824 105.809 602.826 105.809 602.828C105.809 602.829 105.809 602.831 105.809 602.833C105.809 602.834 105.809 602.836 105.809 602.838C105.809 602.839 105.809 602.841 105.809 602.843C105.809 602.844 105.809 602.846 105.809 602.848C105.809 602.85 105.809 602.851 105.809 602.853C105.809 602.855 105.809 602.856 105.809 602.858C105.809 602.86 105.809 602.861 105.809 602.863C105.809 602.865 105.809 602.866 105.809 602.868C105.809 602.87 105.809 602.871 105.809 602.873C105.809 602.875 105.809 602.876 105.809 602.878C105.809 602.88 105.809 602.882 105.809 602.883C105.809 602.885 105.809 602.887 105.809 602.888C105.809 602.89 105.809 602.892 105.809 602.894C105.809 602.895 105.809 602.897 105.809 602.899C105.809 602.9 105.809 602.902 105.809 602.904C105.809 602.905 105.809 602.907 105.809 602.909C105.809 602.911 105.809 602.912 105.809 602.914C105.809 602.916 105.809 602.917 105.809 602.919C105.809 602.921 105.809 602.923 105.809 602.924C105.809 602.926 105.809 602.928 105.809 602.929C105.809 602.931 105.809 602.933 105.809 602.935C105.809 602.936 105.809 602.938 105.809 602.94C105.809 602.941 105.809 602.943 105.809 602.945C105.809 602.947 105.809 602.948 105.809 602.95C105.809 602.952 105.809 602.954 105.809 602.955C105.809 602.957 105.809 602.959 105.809 602.961C105.809 602.962 105.809 602.964 105.809 602.966C105.809 602.967 105.809 602.969 105.809 602.971C105.809 602.973 105.809 602.975 105.809 602.976C105.809 602.978 105.809 602.98 105.809 602.981C105.809 602.983 105.809 602.985 105.809 602.987C105.809 602.988 105.809 602.99 105.809 602.992C105.809 602.994 105.809 602.995 105.809 602.997C105.809 602.999 105.809 603.001 105.809 603.002C105.809 603.004 105.809 603.006 105.809 603.008C105.809 603.01 105.809 603.011 105.809 603.013C105.809 603.015 105.809 603.017 105.809 603.018C105.809 603.02 105.809 603.022 105.809 603.024C105.809 603.025 105.809 603.027 105.809 603.029C105.809 603.031 105.809 603.032 105.809 603.034C105.809 603.036 105.809 603.038 105.809 603.04C105.809 603.041 105.809 603.043 105.809 603.045C105.809 603.047 105.809 603.048 105.809 603.05C105.809 603.052 105.809 603.054 105.809 603.056C105.809 603.057 105.809 603.059 105.809 603.061C105.809 603.063 105.809 603.065 105.809 603.066C105.809 603.068 105.809 603.07 105.809 603.072C105.809 603.074 105.809 603.075 105.809 603.077C105.809 603.079 105.809 603.081 105.809 603.082C105.809 603.084 105.809 603.086 105.809 603.088C105.809 603.09 105.809 603.091 105.809 603.093C105.809 603.095 105.809 603.097 105.809 603.099C105.809 603.1 105.809 603.102 105.809 603.104C105.809 603.106 105.809 603.108 105.809 603.11C105.809 603.111 105.809 603.113 105.809 603.115C105.809 603.117 105.809 603.119 105.809 603.12C105.809 603.122 105.809 603.124 105.809 603.126C105.809 603.128 105.809 603.129 105.809 603.131C105.809 603.133 105.809 603.135 105.809 603.137C105.809 603.139 105.809 603.14 105.809 603.142C105.809 603.144 105.809 603.146 105.809 603.148C105.809 603.15 105.809 603.151 105.809 603.153C105.809 603.155 105.809 603.157 105.809 603.159C105.809 603.16 105.809 603.162 105.809 603.164C105.809 603.166 105.809 603.168 105.809 603.17C105.809 603.172 105.809 603.173 105.809 603.175C105.809 603.177 105.809 603.179 105.809 603.181C105.809 603.183 105.809 603.184 105.809 603.186C105.809 603.188 105.809 603.19 105.809 603.192C105.809 603.194 105.809 603.196 105.809 603.197C105.809 603.199 105.809 603.201 105.809 603.203C105.809 603.205 105.809 603.207 105.809 603.208C105.809 603.21 105.809 603.212 105.809 603.214C105.809 603.216 105.809 603.218 105.809 603.22C105.809 603.221 105.809 603.223 105.809 603.225C105.809 603.227 105.809 603.229 105.809 603.231C105.809 603.233 105.809 603.235 105.809 603.236C105.809 603.238 105.809 603.24 105.809 603.242C105.809 603.244 105.809 603.246 105.809 603.248C105.809 603.25 105.809 603.251 105.809 603.253C105.809 603.255 105.809 603.257 105.809 603.259C105.809 603.261 105.809 603.263 105.809 603.265C105.809 603.266 105.809 603.268 105.809 603.27C105.809 603.272 105.809 603.274 105.809 603.276C105.809 603.278 105.809 603.28 105.809 603.282C105.809 603.283 105.809 603.285 105.809 603.287C105.809 603.289 105.809 603.291 105.809 603.293C105.809 603.295 105.809 603.297 105.809 603.299C105.809 603.3 105.809 603.302 105.809 603.304C105.809 603.306 105.809 603.308 105.809 603.31C105.809 603.312 105.809 603.314 105.809 603.316C105.809 603.318 105.809 603.319 105.809 603.321C105.809 603.323 105.809 603.325 105.809 603.327C105.809 603.329 105.809 603.331 105.809 603.333C105.809 603.335 105.809 603.337 105.809 603.339C105.809 603.34 105.809 603.342 105.809 603.344C105.809 603.346 105.809 603.348 105.809 603.35C105.809 603.352 105.809 603.354 105.809 603.356C105.809 603.358 105.809 603.36 105.809 603.362C105.809 603.364 105.809 603.366 105.809 603.367C105.809 603.369 105.809 603.371 105.809 603.373C105.809 603.375 105.809 603.377 105.809 603.379C105.809 603.381 105.809 603.383 105.809 603.385C105.809 603.387 105.809 603.389 105.809 603.391C105.809 603.393 105.809 603.394 105.809 603.396C105.809 603.398 105.809 603.4 105.809 603.402C105.809 603.404 105.809 603.406 105.809 603.408C105.809 603.41 105.809 603.412 105.809 603.414C105.809 603.416 105.809 603.418 105.809 603.42C105.809 603.422 105.809 603.424 105.809 603.426C105.809 603.428 105.809 603.43 105.809 603.432C105.809 603.433 105.809 603.435 105.809 603.437C105.809 603.439 105.809 603.441 105.809 603.443C105.809 603.445 105.809 603.447 105.809 603.449C105.809 603.451 105.809 603.453 105.809 603.455C105.809 603.457 105.809 603.459 105.809 603.461C105.809 603.463 105.809 603.465 105.809 603.467C105.809 603.469 105.809 603.471 105.809 603.473C105.809 603.475 105.809 603.477 105.809 603.479C105.809 603.481 105.809 603.483 105.809 603.485C105.809 603.487 105.809 603.489 105.809 603.491C105.809 603.493 105.809 603.495 105.809 603.497C105.809 603.499 105.809 603.501 105.809 603.503C105.809 603.505 105.809 603.507 105.809 603.509C105.809 603.511 105.809 603.513 105.809 603.514C105.809 603.517 105.809 603.519 105.809 603.52C105.809 603.522 105.809 603.525 105.809 603.527C105.809 603.528 105.809 603.53 105.809 603.532C105.809 603.535 105.809 603.537 105.809 603.538C105.809 603.54 105.809 603.543 105.809 603.545C105.809 603.547 105.809 603.549 105.809 603.551C105.809 603.553 105.809 603.555 105.809 603.557C105.809 603.559 105.809 603.561 105.809 603.563C105.809 603.565 105.809 603.567 105.809 603.569C105.809 603.571 105.809 603.573 105.809 603.575C105.809 603.577 105.809 603.579 105.809 603.581C105.809 603.583 105.809 603.585 105.809 603.587C105.809 603.589 105.809 603.591 105.809 603.593C105.809 603.595 105.809 603.597 105.809 603.599C105.809 603.601 105.809 603.603 105.809 603.605C105.809 603.607 105.809 603.609 105.809 603.611C105.809 603.613 105.809 603.615 105.809 603.617C105.809 603.619 105.809 603.621 105.809 603.623C105.809 603.625 105.809 603.628 105.809 603.63C105.809 603.632 105.809 603.634 105.809 603.636C105.809 603.638 105.809 603.64 105.809 603.642C105.809 603.644 105.809 603.646 105.809 603.648C105.809 603.65 105.809 603.652 105.809 603.654C105.809 603.656 105.809 603.658 105.809 603.66C105.809 603.662 105.809 603.664 105.809 603.666C105.809 603.669 105.809 603.671 105.809 603.673C105.809 603.675 105.809 603.677 105.809 603.679C105.809 603.681 105.809 603.683 105.809 603.685C105.809 603.687 105.809 603.689 105.809 603.691C105.809 603.693 105.809 603.695 105.809 603.697C105.809 603.699 105.809 603.702 105.809 603.704C105.809 603.706 105.809 603.708 105.809 603.71C105.809 603.712 105.809 603.714 105.809 603.716C105.809 603.718 105.809 603.72 105.809 603.722C105.809 603.724 105.809 603.727 105.809 603.729C105.809 603.731 105.809 603.733 105.809 603.735C105.809 603.737 105.809 603.739 105.809 603.741C105.809 603.743 105.809 603.745 105.809 603.747C105.809 603.749 105.809 603.752 105.809 603.754C105.809 603.756 105.809 603.758 105.809 603.76C105.809 603.762 105.809 603.764 105.809 603.766C105.809 603.768 105.809 603.77 105.809 603.773C105.809 603.775 105.809 603.777 105.809 603.779C105.809 603.781 105.809 603.783 105.809 603.785C105.809 603.787 105.809 603.789 105.809 603.792C105.809 603.794 105.809 603.796 105.809 603.798C105.809 603.8 105.809 603.802 105.809 603.804C105.809 603.806 105.809 603.808 105.809 603.811C105.809 603.813 105.809 603.815 105.809 603.817C105.809 603.819 105.809 603.821 105.809 603.823C105.809 603.825 105.809 603.828 105.809 603.83C105.809 603.832 105.809 603.834 105.809 603.836C105.809 603.838 105.809 603.84 105.809 603.842C105.809 603.845 105.809 603.847 105.809 603.849C105.809 603.851 105.809 603.853 105.809 603.855C105.809 603.857 105.809 603.86 105.809 603.862C105.809 603.864 105.809 603.866 105.809 603.868C105.809 603.87 105.809 603.872 105.809 603.874C105.809 603.877 105.809 603.879 105.809 603.881C105.809 603.883 105.809 603.885 105.809 603.887C105.809 603.89 105.809 603.892 105.809 603.894C105.809 603.896 105.809 603.898 105.809 603.9C105.809 603.902 105.809 603.905 105.809 603.907C105.809 603.909 105.809 603.911 105.809 603.913C105.809 603.915 105.809 603.918 105.809 603.92C105.809 603.922 105.809 603.924 105.809 603.926C105.809 603.928 105.809 603.931 105.809 603.933C105.809 603.935 105.809 603.937 105.809 603.939C105.809 603.941 105.809 603.944 105.809 603.946C105.809 603.948 105.809 603.95 105.809 603.952C105.809 603.954 105.809 603.957 105.809 603.959C105.809 603.961 105.809 603.963 105.809 603.965C105.809 603.967 105.809 603.97 105.809 603.972C105.809 603.974 105.809 603.976 105.809 603.978C105.809 603.981 105.809 603.983 105.809 603.985C105.809 603.987 105.809 603.989 105.809 603.992C105.809 603.994 105.809 603.996 105.809 603.998C105.809 604 105.809 604.003 105.809 604.005C105.809 604.007 105.809 604.009 105.809 604.011C105.809 604.014 105.809 604.016 105.809 604.018C105.809 604.02 105.809 604.022 105.809 604.025C105.809 604.027 105.809 604.029 105.809 604.031C105.809 604.033 105.809 604.036 105.809 604.038C105.809 604.04 105.809 604.042 105.809 604.044C105.809 604.047 105.809 604.049 105.809 604.051C105.809 604.053 105.809 604.055 105.809 604.058C105.809 604.06 105.809 604.062 105.809 604.064C105.809 604.067 105.809 604.069 105.809 604.071C105.809 604.073 105.809 604.075 105.809 604.078C105.809 604.08 105.809 604.082 105.809 604.084C105.809 604.087 105.809 604.089 105.809 604.091C105.809 604.093 105.809 604.095 105.809 604.098C105.809 604.1 105.809 604.102 105.809 604.104C105.809 604.107 105.809 604.109 105.809 604.111C105.809 604.113 105.809 604.116 105.809 604.118C105.809 604.12 105.809 604.122 105.809 604.125C105.809 604.127 105.809 604.129 105.809 604.131C105.809 604.134 105.809 604.136 105.809 604.138C105.809 604.14 105.809 604.143 105.809 604.145C105.809 604.147 105.809 604.149 105.809 604.152C105.809 604.154 105.809 604.156 105.809 604.158C105.809 604.161 105.809 604.163 105.809 604.165C105.809 604.167 105.809 604.17 105.809 604.172C105.809 604.174 105.809 604.176 105.809 604.179C105.809 604.181 105.809 604.183 105.809 604.185C105.809 604.188 105.809 604.19 105.809 604.192C105.809 604.194 105.809 604.197 105.809 604.199C105.809 604.201 105.809 604.204 105.809 604.206C105.809 604.208 105.809 604.21 105.809 604.213C105.809 604.215 105.809 604.217 105.809 604.22C105.809 604.222 105.809 604.224 105.809 604.226C105.809 604.229 105.809 604.231 105.809 604.233C105.809 604.235 105.809 604.238 105.809 604.24C105.809 604.242 105.809 604.245 105.809 604.247C105.809 604.249 105.809 604.251 105.809 604.254C105.809 604.256 105.809 604.258 105.809 604.261C105.809 604.263 105.809 604.265 105.809 604.268C105.809 604.27 105.809 604.272 105.809 604.274C105.809 604.277 105.809 604.279 105.809 604.281C105.809 604.284 105.809 604.286 105.809 604.288C105.809 604.291 105.809 604.293 105.809 604.295C105.809 604.298 105.809 604.3 105.809 604.302C105.809 604.304 105.809 604.307 105.809 604.309C105.809 604.311 105.809 604.314 105.809 604.316C105.809 604.318 105.809 604.321 105.809 604.323C105.809 604.325 105.809 604.328 105.809 604.33C105.809 604.332 105.809 604.335 105.809 604.337C105.809 604.339 105.809 604.342 105.809 604.344C105.809 604.346 105.809 604.348 105.809 604.351C105.809 604.353 105.809 604.355 105.809 604.358C105.809 604.36 105.809 604.362 105.809 604.365C105.809 604.367 105.809 604.369 105.809 604.372C105.809 604.374 105.809 604.376 105.809 604.379C105.809 604.381 105.809 604.384 105.809 604.386C105.809 604.388 105.809 604.391 105.809 604.393C105.809 604.395 105.809 604.398 105.809 604.4C105.809 604.402 105.809 604.405 105.809 604.407C105.809 604.409 105.809 604.412 105.809 604.414C105.809 604.416 105.809 604.419 105.809 604.421C105.809 604.423 105.809 604.426 105.809 604.428C105.809 604.431 105.809 604.433 105.809 604.435C105.809 604.438 105.809 604.44 105.809 604.442C105.809 604.445 105.809 604.447 105.809 604.449C105.809 604.452 105.809 604.454 105.809 604.457C105.809 604.459 105.809 604.461 105.809 604.464C105.809 604.466 105.809 604.468 105.809 604.471C105.809 604.473 105.809 604.475 105.809 604.478C105.809 604.48 105.809 604.483 105.809 604.485C105.809 604.487 105.809 604.49 105.809 604.492C105.809 604.494 105.809 604.497 105.809 604.499C105.809 604.502 105.809 604.504 105.809 604.506C105.809 604.509 105.809 604.511 105.809 604.514C105.809 604.516 105.809 604.518 105.809 604.521C105.809 604.523 105.809 604.525 105.809 604.528C105.809 604.53 105.809 604.533 105.809 604.535C105.809 604.537 105.809 604.54 105.809 604.542C105.809 604.545 105.809 604.547 105.809 604.549C105.809 604.552 105.809 604.554 105.809 604.557C105.809 604.559 105.809 604.561 105.809 604.564C105.809 604.566 105.809 604.569 105.809 604.571C105.809 604.574 105.809 604.576 105.809 604.578C105.809 604.581 105.809 604.583 105.809 604.586C105.809 604.588 105.809 604.59 105.809 604.593C105.809 604.595 105.809 604.598 105.809 604.6C105.809 604.603 105.809 604.605 105.809 604.607C105.809 604.61 105.809 604.612 105.809 604.615C105.809 604.617 105.809 604.619 105.809 604.622C105.809 604.624 105.809 604.627 105.809 604.629C105.809 604.632 105.809 604.634 105.809 604.636C105.809 604.639 105.809 604.641 105.809 604.644C105.809 604.646 105.809 604.649 105.809 604.651C105.809 604.654 105.809 604.656 105.809 604.658C105.809 604.661 105.809 604.663 105.809 604.666C105.809 604.668 105.809 604.671 105.809 604.673C105.809 604.676 105.809 604.678 105.809 604.68C105.809 604.683 105.809 604.685 105.809 604.688C105.809 604.69 105.809 604.693 105.809 604.695C105.809 604.698 105.809 604.7 105.809 604.702C105.809 604.705 105.809 604.707 105.809 604.71C105.809 604.712 105.809 604.715 105.809 604.717C105.809 604.72 105.809 604.722 105.809 604.725C105.809 604.727 105.809 604.73 105.809 604.732C105.809 604.734 105.809 604.737 105.809 604.739C105.809 604.742 105.809 604.744 105.809 604.747C105.809 604.749 105.809 604.752 105.809 604.754C105.809 604.757 105.809 604.759 105.809 604.762C105.809 604.764 105.809 604.767 105.809 604.769C105.809 604.772 105.809 604.774 105.809 604.777C105.809 604.779 105.809 604.781 105.809 604.784C105.809 604.786 105.809 604.789 105.809 604.791C105.809 604.794 105.809 604.796 105.809 604.799C105.809 604.801 105.809 604.804 105.809 604.806C105.809 604.809 105.809 604.811 105.809 604.814C105.809 604.816 105.809 604.819 105.809 604.821C105.809 604.824 105.809 604.826 105.809 604.829C105.809 604.831 105.809 604.834 105.809 604.836C105.809 604.839 105.809 604.841 105.809 604.844C105.809 604.846 105.809 604.849 105.809 604.851C105.809 604.854 105.809 604.856 105.809 604.859C105.809 604.861 105.809 604.864 105.809 604.866C105.809 604.869 105.809 604.871 105.809 604.874C105.809 604.876 105.809 604.879 105.809 604.881C105.809 604.884 105.809 604.886 105.809 604.889C105.809 604.892 105.809 604.894 105.809 604.897C105.809 604.899 105.809 604.902 105.809 604.904C105.809 604.907 105.809 604.909 105.809 604.912C105.809 604.914 105.809 604.917 105.809 604.919C105.809 604.922 105.809 604.924 105.809 604.927C105.809 604.929 105.809 604.932 105.809 604.935C105.809 604.937 105.809 604.94 105.809 604.942C105.809 604.945 105.809 604.947 105.809 604.95C105.809 604.952 105.809 604.955 105.809 604.957C105.809 604.96 105.809 604.962 105.809 604.965C105.809 604.968 105.809 604.97 105.809 604.973C105.809 604.975 105.809 604.978 105.809 604.98C105.809 604.983 105.809 604.985 105.809 604.988C105.809 604.991 105.809 604.993 105.809 604.996C105.809 604.998 105.809 605.001 105.809 605.003C105.809 605.006 105.809 605.008 105.809 605.011C105.809 605.014 105.809 605.016 105.809 605.019C105.809 605.021 105.809 605.024 105.809 605.026C105.809 605.029 105.809 605.032 105.809 605.034C105.809 605.037 105.809 605.039 105.809 605.042C105.809 605.044 105.809 605.047 105.809 605.05C105.809 605.052 105.809 605.055 105.809 605.057C105.809 605.06 105.809 605.062 105.809 605.065C105.809 605.068 105.809 605.07 105.809 605.073C105.809 605.075 105.809 605.078 105.809 605.081C105.809 605.083 105.809 605.086 105.809 605.088C105.809 605.091 105.809 605.093 105.809 605.096C105.809 605.099 105.809 605.101 105.809 605.104C105.809 605.106 105.809 605.109 105.809 605.112C105.809 605.114 105.809 605.117 105.809 605.119C105.809 605.122 105.809 605.125 105.809 605.127C105.809 605.13 105.809 605.132 105.809 605.135C105.809 605.138 105.809 605.14 105.809 605.143C105.809 605.145 105.809 605.148 105.809 605.151C105.809 605.153 105.809 605.156 105.809 605.158C105.809 605.161 105.809 605.164 105.809 605.166C105.809 605.169 105.809 605.172 105.809 605.174C105.809 605.177 105.809 605.179 105.809 605.182C105.809 605.185 105.809 605.187 105.809 605.19C105.809 605.192 105.809 605.195 105.809 605.198C105.809 605.2 105.809 605.203 105.809 605.206C105.809 605.208 105.809 605.211 105.809 605.213C105.809 605.216 105.809 605.219 105.809 605.221C105.809 605.224 105.809 605.227 105.809 605.229C105.809 605.232 105.809 605.235 105.809 605.237C105.809 605.24 105.809 605.242 105.809 605.245C105.809 605.248 105.809 605.25 105.809 605.253C105.809 605.256 105.809 605.258 105.809 605.261C105.809 605.264 105.809 605.266 105.809 605.269C105.809 605.272 105.809 605.274 105.809 605.277C105.809 605.28 105.809 605.282 105.809 605.285C105.809 605.287 105.809 605.29 105.809 605.293C105.809 605.295 105.809 605.298 105.809 605.301C105.809 605.303 105.809 605.306 105.809 605.309C105.809 605.311 105.809 605.314 105.809 605.317C105.809 605.319 105.809 605.322 105.809 605.325C105.809 605.327 105.809 605.33 105.809 605.333C105.809 605.335 105.809 605.338 105.809 605.341C105.809 605.343 105.809 605.346 105.809 605.349C105.809 605.351 105.809 605.354 105.809 605.357C105.809 605.359 105.809 605.362 105.809 605.365C105.809 605.367 105.809 605.37 105.809 605.373C105.809 605.376 105.809 605.378 105.809 605.381C105.809 605.384 105.809 605.386 105.809 605.389C105.809 605.392 105.809 605.394 105.809 605.397C105.809 605.4 105.809 605.402 105.809 605.405C105.809 605.408 105.809 605.41 105.809 605.413C105.809 605.416 105.809 605.419 105.809 605.421C105.809 605.424 105.809 605.427 105.809 605.429C105.809 605.432 105.809 605.435 105.809 605.437C105.809 605.44 105.809 605.443 105.809 605.446C105.809 605.448 105.809 605.451 105.809 605.454C105.809 605.456 105.809 605.459 105.809 605.462C105.809 605.465 105.809 605.467 105.809 605.47C105.809 605.473 105.809 605.475 105.809 605.478C105.809 605.481 105.809 605.483 105.809 605.486C105.809 605.489 105.809 605.492 105.809 605.494C105.809 605.497 105.809 605.5 105.809 605.503C105.809 605.505 105.809 605.508 105.809 605.511C105.809 605.513 105.809 605.516 105.809 605.519C105.809 605.522 105.809 605.524 105.809 605.527C105.809 605.53 105.809 605.532 105.809 605.535C105.809 605.538 105.809 605.541 105.809 605.543C105.809 605.546 105.809 605.549 105.809 605.552C105.809 605.554 105.809 605.557 105.809 605.56C105.809 605.563 105.809 605.565 105.809 605.568C105.809 605.571 105.809 605.574 105.809 605.576C105.809 605.579 105.809 605.582 105.809 605.585C105.809 605.587 105.809 605.59 105.809 605.593C105.809 605.596 105.809 605.598 105.809 605.601C105.809 605.604 105.809 605.607 105.809 605.609C105.809 605.612 105.809 605.615 105.809 605.618C105.809 605.62 105.809 605.623 105.809 605.626C105.809 605.629 105.809 605.631 105.809 605.634C105.809 605.637 105.809 605.64 105.809 605.642C105.809 605.645 105.809 605.648 105.809 605.651C105.809 605.654 105.809 605.656 105.809 605.659C105.809 605.662 105.809 605.665 105.809 605.667C105.809 605.67 105.809 605.673 105.809 605.676C105.809 605.679 105.809 605.681 105.809 605.684C105.809 605.687 105.809 605.69 105.809 605.692C105.809 605.695 105.809 605.698 105.809 605.701C105.809 605.704 105.809 605.706 105.809 605.709C105.809 605.712 105.809 605.715 105.809 605.718H109.292C109.292 605.715 109.292 605.712 109.292 605.709C109.292 605.706 109.292 605.704 109.292 605.701C109.292 605.698 109.292 605.695 109.292 605.692C109.292 605.69 109.292 605.687 109.292 605.684C109.292 605.681 109.292 605.679 109.292 605.676C109.292 605.673 109.292 605.67 109.292 605.667C109.292 605.665 109.292 605.662 109.292 605.659C109.292 605.656 109.292 605.654 109.292 605.651C109.292 605.648 109.292 605.645 109.292 605.642C109.292 605.64 109.292 605.637 109.292 605.634C109.292 605.631 109.292 605.629 109.292 605.626C109.292 605.623 109.292 605.62 109.292 605.618C109.292 605.615 109.292 605.612 109.292 605.609C109.292 605.607 109.292 605.604 109.292 605.601C109.292 605.598 109.292 605.596 109.292 605.593C109.292 605.59 109.292 605.587 109.292 605.585C109.292 605.582 109.292 605.579 109.292 605.576C109.292 605.574 109.292 605.571 109.292 605.568C109.292 605.565 109.292 605.563 109.292 605.56C109.292 605.557 109.292 605.554 109.292 605.552C109.292 605.549 109.292 605.546 109.292 605.543C109.292 605.541 109.292 605.538 109.292 605.535C109.292 605.532 109.292 605.53 109.292 605.527C109.292 605.524 109.292 605.522 109.292 605.519C109.292 605.516 109.292 605.513 109.292 605.511C109.292 605.508 109.292 605.505 109.292 605.503C109.292 605.5 109.292 605.497 109.292 605.494C109.292 605.492 109.292 605.489 109.292 605.486C109.292 605.483 109.292 605.481 109.292 605.478C109.292 605.475 109.292 605.473 109.292 605.47C109.292 605.467 109.292 605.465 109.292 605.462C109.292 605.459 109.292 605.456 109.292 605.454C109.292 605.451 109.292 605.448 109.292 605.446C109.292 605.443 109.292 605.44 109.292 605.437C109.292 605.435 109.292 605.432 109.292 605.429C109.292 605.427 109.292 605.424 109.292 605.421C109.292 605.419 109.292 605.416 109.292 605.413C109.292 605.41 109.292 605.408 109.292 605.405C109.292 605.402 109.292 605.4 109.292 605.397C109.292 605.394 109.292 605.392 109.292 605.389C109.292 605.386 109.292 605.384 109.292 605.381C109.292 605.378 109.292 605.376 109.292 605.373C109.292 605.37 109.292 605.367 109.292 605.365C109.292 605.362 109.292 605.359 109.292 605.357C109.292 605.354 109.292 605.351 109.292 605.349C109.292 605.346 109.292 605.343 109.292 605.341C109.292 605.338 109.292 605.335 109.292 605.333C109.292 605.33 109.292 605.327 109.292 605.325C109.292 605.322 109.292 605.319 109.292 605.317C109.292 605.314 109.292 605.311 109.292 605.309C109.292 605.306 109.292 605.303 109.292 605.301C109.292 605.298 109.292 605.295 109.292 605.293C109.292 605.29 109.292 605.287 109.292 605.285C109.292 605.282 109.292 605.28 109.292 605.277C109.292 605.274 109.292 605.272 109.292 605.269C109.292 605.266 109.292 605.264 109.292 605.261C109.292 605.258 109.292 605.256 109.292 605.253C109.292 605.25 109.292 605.248 109.292 605.245C109.292 605.242 109.292 605.24 109.292 605.237C109.292 605.235 109.292 605.232 109.292 605.229C109.292 605.227 109.292 605.224 109.292 605.221C109.292 605.219 109.292 605.216 109.292 605.213C109.292 605.211 109.292 605.208 109.292 605.206C109.292 605.203 109.292 605.2 109.292 605.198C109.292 605.195 109.292 605.192 109.292 605.19C109.292 605.187 109.292 605.185 109.292 605.182C109.292 605.179 109.292 605.177 109.292 605.174C109.292 605.172 109.292 605.169 109.292 605.166C109.292 605.164 109.292 605.161 109.292 605.158C109.292 605.156 109.292 605.153 109.292 605.151C109.292 605.148 109.292 605.145 109.292 605.143C109.292 605.14 109.292 605.138 109.292 605.135C109.292 605.132 109.292 605.13 109.292 605.127C109.292 605.125 109.292 605.122 109.292 605.119C109.292 605.117 109.292 605.114 109.292 605.112C109.292 605.109 109.292 605.106 109.292 605.104C109.292 605.101 109.292 605.099 109.292 605.096C109.292 605.093 109.292 605.091 109.292 605.088C109.292 605.086 109.292 605.083 109.292 605.081C109.292 605.078 109.292 605.075 109.292 605.073C109.292 605.07 109.292 605.068 109.292 605.065C109.292 605.062 109.292 605.06 109.292 605.057C109.292 605.055 109.292 605.052 109.292 605.05C109.292 605.047 109.292 605.044 109.292 605.042C109.292 605.039 109.292 605.037 109.292 605.034C109.292 605.032 109.292 605.029 109.292 605.026C109.292 605.024 109.292 605.021 109.292 605.019C109.292 605.016 109.292 605.014 109.292 605.011C109.292 605.008 109.292 605.006 109.292 605.003C109.292 605.001 109.292 604.998 109.292 604.996C109.292 604.993 109.292 604.991 109.292 604.988C109.292 604.985 109.292 604.983 109.292 604.98C109.292 604.978 109.292 604.975 109.292 604.973C109.292 604.97 109.292 604.968 109.292 604.965C109.292 604.962 109.292 604.96 109.292 604.957C109.292 604.955 109.292 604.952 109.292 604.95C109.292 604.947 109.292 604.945 109.292 604.942C109.292 604.94 109.292 604.937 109.292 604.935C109.292 604.932 109.292 604.929 109.292 604.927C109.292 604.924 109.292 604.922 109.292 604.919C109.292 604.917 109.292 604.914 109.292 604.912C109.292 604.909 109.292 604.907 109.292 604.904C109.292 604.902 109.292 604.899 109.292 604.897C109.292 604.894 109.292 604.892 109.292 604.889C109.292 604.886 109.292 604.884 109.292 604.881C109.292 604.879 109.292 604.876 109.292 604.874C109.292 604.871 109.292 604.869 109.292 604.866C109.292 604.864 109.292 604.861 109.292 604.859C109.292 604.856 109.292 604.854 109.292 604.851C109.292 604.849 109.292 604.846 109.292 604.844C109.292 604.841 109.292 604.839 109.292 604.836C109.292 604.834 109.292 604.831 109.292 604.829C109.292 604.826 109.292 604.824 109.292 604.821C109.292 604.819 109.292 604.816 109.292 604.814C109.292 604.811 109.292 604.809 109.292 604.806C109.292 604.804 109.292 604.801 109.292 604.799C109.292 604.796 109.292 604.794 109.292 604.791C109.292 604.789 109.292 604.786 109.292 604.784C109.292 604.781 109.292 604.779 109.292 604.777C109.292 604.774 109.292 604.772 109.292 604.769C109.292 604.767 109.292 604.764 109.292 604.762C109.292 604.759 109.292 604.757 109.292 604.754C109.292 604.752 109.292 604.749 109.292 604.747C109.292 604.744 109.292 604.742 109.292 604.739C109.292 604.737 109.292 604.734 109.292 604.732C109.292 604.73 109.292 604.727 109.292 604.725C109.292 604.722 109.292 604.72 109.292 604.717C109.292 604.715 109.292 604.712 109.292 604.71C109.292 604.707 109.292 604.705 109.292 604.702C109.292 604.7 109.292 604.698 109.292 604.695C109.292 604.693 109.292 604.69 109.292 604.688C109.292 604.685 109.292 604.683 109.292 604.68C109.292 604.678 109.292 604.676 109.292 604.673C109.292 604.671 109.292 604.668 109.292 604.666C109.292 604.663 109.292 604.661 109.292 604.658C109.292 604.656 109.292 604.654 109.292 604.651C109.292 604.649 109.292 604.646 109.292 604.644C109.292 604.641 109.292 604.639 109.292 604.636C109.292 604.634 109.292 604.632 109.292 604.629C109.292 604.627 109.292 604.624 109.292 604.622C109.292 604.619 109.292 604.617 109.292 604.615C109.292 604.612 109.292 604.61 109.292 604.607C109.292 604.605 109.292 604.603 109.292 604.6C109.292 604.598 109.292 604.595 109.292 604.593C109.292 604.59 109.292 604.588 109.292 604.586C109.292 604.583 109.292 604.581 109.292 604.578C109.292 604.576 109.292 604.574 109.292 604.571C109.292 604.569 109.292 604.566 109.292 604.564C109.292 604.561 109.292 604.559 109.292 604.557C109.292 604.554 109.292 604.552 109.292 604.549C109.292 604.547 109.292 604.545 109.292 604.542C109.292 604.54 109.292 604.537 109.292 604.535C109.292 604.533 109.292 604.53 109.292 604.528C109.292 604.525 109.292 604.523 109.292 604.521C109.292 604.518 109.292 604.516 109.292 604.514C109.292 604.511 109.292 604.509 109.292 604.506C109.292 604.504 109.292 604.502 109.292 604.499C109.292 604.497 109.292 604.494 109.292 604.492C109.292 604.49 109.292 604.487 109.292 604.485C109.292 604.483 109.292 604.48 109.292 604.478C109.292 604.475 109.292 604.473 109.292 604.471C109.292 604.468 109.292 604.466 109.292 604.464C109.292 604.461 109.292 604.459 109.292 604.457C109.292 604.454 109.292 604.452 109.292 604.449C109.292 604.447 109.292 604.445 109.292 604.442C109.292 604.44 109.292 604.438 109.292 604.435C109.292 604.433 109.292 604.431 109.292 604.428C109.292 604.426 109.292 604.423 109.292 604.421C109.292 604.419 109.292 604.416 109.292 604.414C109.292 604.412 109.292 604.409 109.292 604.407C109.292 604.405 109.292 604.402 109.292 604.4C109.292 604.398 109.292 604.395 109.292 604.393C109.292 604.391 109.292 604.388 109.292 604.386C109.292 604.384 109.292 604.381 109.292 604.379C109.292 604.376 109.292 604.374 109.292 604.372C109.292 604.369 109.292 604.367 109.292 604.365C109.292 604.362 109.292 604.36 109.292 604.358C109.292 604.355 109.292 604.353 109.292 604.351C109.292 604.348 109.292 604.346 109.292 604.344C109.292 604.342 109.292 604.339 109.292 604.337C109.292 604.335 109.292 604.332 109.292 604.33C109.292 604.328 109.292 604.325 109.292 604.323C109.292 604.321 109.292 604.318 109.292 604.316C109.292 604.314 109.292 604.311 109.292 604.309C109.292 604.307 109.292 604.304 109.292 604.302C109.292 604.3 109.292 604.298 109.292 604.295C109.292 604.293 109.292 604.291 109.292 604.288C109.292 604.286 109.292 604.284 109.292 604.281C109.292 604.279 109.292 604.277 109.292 604.274C109.292 604.272 109.292 604.27 109.292 604.268C109.292 604.265 109.292 604.263 109.292 604.261C109.292 604.258 109.292 604.256 109.292 604.254C109.292 604.251 109.292 604.249 109.292 604.247C109.292 604.245 109.292 604.242 109.292 604.24C109.292 604.238 109.292 604.235 109.292 604.233C109.292 604.231 109.292 604.229 109.292 604.226C109.292 604.224 109.292 604.222 109.292 604.22C109.292 604.217 109.292 604.215 109.292 604.213C109.292 604.21 109.292 604.208 109.292 604.206C109.292 604.204 109.292 604.201 109.292 604.199C109.292 604.197 109.292 604.194 109.292 604.192C109.292 604.19 109.292 604.188 109.292 604.185C109.292 604.183 109.292 604.181 109.292 604.179C109.292 604.176 109.292 604.174 109.292 604.172C109.292 604.17 109.292 604.167 109.292 604.165C109.292 604.163 109.292 604.161 109.292 604.158C109.292 604.156 109.292 604.154 109.292 604.152C109.292 604.149 109.292 604.147 109.292 604.145C109.292 604.143 109.292 604.14 109.292 604.138C109.292 604.136 109.292 604.134 109.292 604.131C109.292 604.129 109.292 604.127 109.292 604.125C109.292 604.122 109.292 604.12 109.292 604.118C109.292 604.116 109.292 604.113 109.292 604.111C109.292 604.109 109.292 604.107 109.292 604.104C109.292 604.102 109.292 604.1 109.292 604.098C109.292 604.095 109.292 604.093 109.292 604.091C109.292 604.089 109.292 604.087 109.292 604.084C109.292 604.082 109.292 604.08 109.292 604.078C109.292 604.075 109.292 604.073 109.292 604.071C109.292 604.069 109.292 604.067 109.292 604.064C109.292 604.062 109.292 604.06 109.292 604.058C109.292 604.055 109.292 604.053 109.292 604.051C109.292 604.049 109.292 604.047 109.292 604.044C109.292 604.042 109.292 604.04 109.292 604.038C109.292 604.036 109.292 604.033 109.292 604.031C109.292 604.029 109.292 604.027 109.292 604.025C109.292 604.022 109.292 604.02 109.292 604.018C109.292 604.016 109.292 604.014 109.292 604.011C109.292 604.009 109.292 604.007 109.292 604.005C109.292 604.003 109.292 604 109.292 603.998C109.292 603.996 109.292 603.994 109.292 603.992C109.292 603.989 109.292 603.987 109.292 603.985C109.292 603.983 109.292 603.981 109.292 603.978C109.292 603.976 109.292 603.974 109.292 603.972C109.292 603.97 109.292 603.967 109.292 603.965C109.292 603.963 109.292 603.961 109.292 603.959C109.292 603.957 109.292 603.954 109.292 603.952C109.292 603.95 109.292 603.948 109.292 603.946C109.292 603.944 109.292 603.941 109.292 603.939C109.292 603.937 109.292 603.935 109.292 603.933C109.292 603.931 109.292 603.928 109.292 603.926C109.292 603.924 109.292 603.922 109.292 603.92C109.292 603.918 109.292 603.915 109.292 603.913C109.292 603.911 109.292 603.909 109.292 603.907C109.292 603.905 109.292 603.902 109.292 603.9C109.292 603.898 109.292 603.896 109.292 603.894C109.292 603.892 109.292 603.89 109.292 603.887C109.292 603.885 109.292 603.883 109.292 603.881C109.292 603.879 109.292 603.877 109.292 603.874C109.292 603.872 109.292 603.87 109.292 603.868C109.292 603.866 109.292 603.864 109.292 603.862C109.292 603.86 109.292 603.857 109.292 603.855C109.292 603.853 109.292 603.851 109.292 603.849C109.292 603.847 109.292 603.845 109.292 603.842C109.292 603.84 109.292 603.838 109.292 603.836C109.292 603.834 109.292 603.832 109.292 603.83C109.292 603.828 109.292 603.825 109.292 603.823C109.292 603.821 109.292 603.819 109.292 603.817C109.292 603.815 109.292 603.813 109.292 603.811C109.292 603.808 109.292 603.806 109.292 603.804C109.292 603.802 109.292 603.8 109.292 603.798C109.292 603.796 109.292 603.794 109.292 603.792C109.292 603.789 109.292 603.787 109.292 603.785C109.292 603.783 109.292 603.781 109.292 603.779C109.292 603.777 109.292 603.775 109.292 603.773C109.292 603.77 109.292 603.768 109.292 603.766C109.292 603.764 109.292 603.762 109.292 603.76C109.292 603.758 109.292 603.756 109.292 603.754C109.292 603.752 109.292 603.749 109.292 603.747C109.292 603.745 109.292 603.743 109.292 603.741C109.292 603.739 109.292 603.737 109.292 603.735C109.292 603.733 109.292 603.731 109.292 603.729C109.292 603.727 109.292 603.724 109.292 603.722C109.292 603.72 109.292 603.718 109.292 603.716C109.292 603.714 109.292 603.712 109.292 603.71C109.292 603.708 109.292 603.706 109.292 603.704C109.292 603.702 109.292 603.699 109.292 603.697C109.292 603.695 109.292 603.693 109.292 603.691C109.292 603.689 109.292 603.687 109.292 603.685C109.292 603.683 109.292 603.681 109.292 603.679C109.292 603.677 109.292 603.675 109.292 603.673C109.292 603.671 109.292 603.669 109.292 603.666C109.292 603.664 109.292 603.662 109.292 603.66C109.292 603.658 109.292 603.656 109.292 603.654C109.292 603.652 109.292 603.65 109.292 603.648C109.292 603.646 109.292 603.644 109.292 603.642C109.292 603.64 109.292 603.638 109.292 603.636C109.292 603.634 109.292 603.632 109.292 603.63C109.292 603.628 109.292 603.625 109.292 603.623C109.292 603.621 109.292 603.619 109.292 603.617C109.292 603.615 109.292 603.613 109.292 603.611C109.292 603.609 109.292 603.607 109.292 603.605C109.292 603.603 109.292 603.601 109.292 603.599C109.292 603.597 109.292 603.595 109.292 603.593C109.292 603.591 109.292 603.589 109.292 603.587C109.292 603.585 109.292 603.583 109.292 603.581C109.292 603.579 109.292 603.577 109.292 603.575C109.292 603.573 109.292 603.571 109.292 603.569C109.292 603.567 109.292 603.565 109.292 603.563C109.292 603.561 109.292 603.559 109.292 603.557C109.292 603.555 109.292 603.553 109.292 603.551C109.292 603.549 109.292 603.547 109.292 603.545C109.292 603.543 109.292 603.54 109.292 603.538C109.292 603.537 109.292 603.535 109.292 603.532C109.292 603.53 109.292 603.528 109.292 603.527C109.292 603.525 109.292 603.522 109.292 603.52C109.292 603.519 109.292 603.517 109.292 603.514C109.292 603.513 109.292 603.511 109.292 603.509C109.292 603.507 109.292 603.505 109.292 603.503C109.292 603.501 109.292 603.499 109.292 603.497C109.292 603.495 109.292 603.493 109.292 603.491C109.292 603.489 109.292 603.487 109.292 603.485C109.292 603.483 109.292 603.481 109.292 603.479C109.292 603.477 109.292 603.475 109.292 603.473C109.292 603.471 109.292 603.469 109.292 603.467C109.292 603.465 109.292 603.463 109.292 603.461C109.292 603.459 109.292 603.457 109.292 603.455C109.292 603.453 109.292 603.451 109.292 603.449C109.292 603.447 109.292 603.445 109.292 603.443C109.292 603.441 109.292 603.439 109.292 603.437C109.292 603.435 109.292 603.433 109.292 603.432C109.292 603.43 109.292 603.428 109.292 603.426C109.292 603.424 109.292 603.422 109.292 603.42C109.292 603.418 109.292 603.416 109.292 603.414C109.292 603.412 109.292 603.41 109.292 603.408C109.292 603.406 109.292 603.404 109.292 603.402C109.292 603.4 109.292 603.398 109.292 603.396C109.292 603.394 109.292 603.393 109.292 603.391C109.292 603.389 109.292 603.387 109.292 603.385C109.292 603.383 109.292 603.381 109.292 603.379C109.292 603.377 109.292 603.375 109.292 603.373C109.292 603.371 109.292 603.369 109.292 603.367C109.292 603.366 109.292 603.364 109.292 603.362C109.292 603.36 109.292 603.358 109.292 603.356C109.292 603.354 109.292 603.352 109.292 603.35C109.292 603.348 109.292 603.346 109.292 603.344C109.292 603.342 109.292 603.34 109.292 603.339C109.292 603.337 109.292 603.335 109.292 603.333C109.292 603.331 109.292 603.329 109.292 603.327C109.292 603.325 109.292 603.323 109.292 603.321C109.292 603.319 109.292 603.318 109.292 603.316C109.292 603.314 109.292 603.312 109.292 603.31C109.292 603.308 109.292 603.306 109.292 603.304C109.292 603.302 109.292 603.3 109.292 603.299C109.292 603.297 109.292 603.295 109.292 603.293C109.292 603.291 109.292 603.289 109.292 603.287C109.292 603.285 109.292 603.283 109.292 603.282C109.292 603.28 109.292 603.278 109.292 603.276C109.292 603.274 109.292 603.272 109.292 603.27C109.292 603.268 109.292 603.266 109.292 603.265C109.292 603.263 109.292 603.261 109.292 603.259C109.292 603.257 109.292 603.255 109.292 603.253C109.292 603.251 109.292 603.25 109.292 603.248C109.292 603.246 109.292 603.244 109.292 603.242C109.292 603.24 109.292 603.238 109.292 603.236C109.292 603.235 109.292 603.233 109.292 603.231C109.292 603.229 109.292 603.227 109.292 603.225C109.292 603.223 109.292 603.221 109.292 603.22C109.292 603.218 109.292 603.216 109.292 603.214C109.292 603.212 109.292 603.21 109.292 603.208C109.292 603.207 109.292 603.205 109.292 603.203C109.292 603.201 109.292 603.199 109.292 603.197C109.292 603.196 109.292 603.194 109.292 603.192C109.292 603.19 109.292 603.188 109.292 603.186C109.292 603.184 109.292 603.183 109.292 603.181C109.292 603.179 109.292 603.177 109.292 603.175C109.292 603.173 109.292 603.172 109.292 603.17C109.292 603.168 109.292 603.166 109.292 603.164C109.292 603.162 109.292 603.16 109.292 603.159C109.292 603.157 109.292 603.155 109.292 603.153C109.292 603.151 109.292 603.15 109.292 603.148C109.292 603.146 109.292 603.144 109.292 603.142C109.292 603.14 109.292 603.139 109.292 603.137C109.292 603.135 109.292 603.133 109.292 603.131C109.292 603.129 109.292 603.128 109.292 603.126C109.292 603.124 109.292 603.122 109.292 603.12C109.292 603.119 109.292 603.117 109.292 603.115C109.292 603.113 109.292 603.111 109.292 603.11C109.292 603.108 109.292 603.106 109.292 603.104C109.292 603.102 109.292 603.1 109.292 603.099C109.292 603.097 109.292 603.095 109.292 603.093C109.292 603.091 109.292 603.09 109.292 603.088C109.292 603.086 109.292 603.084 109.292 603.082C109.292 603.081 109.292 603.079 109.292 603.077C109.292 603.075 109.292 603.074 109.292 603.072C109.292 603.07 109.292 603.068 109.292 603.066C109.292 603.065 109.292 603.063 109.292 603.061C109.292 603.059 109.292 603.057 109.292 603.056C109.292 603.054 109.292 603.052 109.292 603.05C109.292 603.048 109.292 603.047 109.292 603.045C109.292 603.043 109.292 603.041 109.292 603.04C109.292 603.038 109.292 603.036 109.292 603.034C109.292 603.032 109.292 603.031 109.292 603.029C109.292 603.027 109.292 603.025 109.292 603.024C109.292 603.022 109.292 603.02 109.292 603.018C109.292 603.017 109.292 603.015 109.292 603.013C109.292 603.011 109.292 603.01 109.292 603.008C109.292 603.006 109.292 603.004 109.292 603.002C109.292 603.001 109.292 602.999 109.292 602.997C109.292 602.995 109.292 602.994 109.292 602.992C109.292 602.99 109.292 602.988 109.292 602.987C109.292 602.985 109.292 602.983 109.292 602.981C109.292 602.98 109.292 602.978 109.292 602.976C109.292 602.975 109.292 602.973 109.292 602.971C109.292 602.969 109.292 602.967 109.292 602.966C109.292 602.964 109.292 602.962 109.292 602.961C109.292 602.959 109.292 602.957 109.292 602.955C109.292 602.954 109.292 602.952 109.292 602.95C109.292 602.948 109.292 602.947 109.292 602.945C109.292 602.943 109.292 602.941 109.292 602.94C109.292 602.938 109.292 602.936 109.292 602.935C109.292 602.933 109.292 602.931 109.292 602.929C109.292 602.928 109.292 602.926 109.292 602.924C109.292 602.923 109.292 602.921 109.292 602.919C109.292 602.917 109.292 602.916 109.292 602.914C109.292 602.912 109.292 602.911 109.292 602.909C109.292 602.907 109.292 602.905 109.292 602.904C109.292 602.902 109.292 602.9 109.292 602.899C109.292 602.897 109.292 602.895 109.292 602.894C109.292 602.892 109.292 602.89 109.292 602.888C109.292 602.887 109.292 602.885 109.292 602.883C109.292 602.882 109.292 602.88 109.292 602.878C109.292 602.876 109.292 602.875 109.292 602.873C109.292 602.871 109.292 602.87 109.292 602.868C109.292 602.866 109.292 602.865 109.292 602.863C109.292 602.861 109.292 602.86 109.292 602.858C109.292 602.856 109.292 602.855 109.292 602.853C109.292 602.851 109.292 602.85 109.292 602.848C109.292 602.846 109.292 602.844 109.292 602.843C109.292 602.841 109.292 602.839 109.292 602.838C109.292 602.836 109.292 602.834 109.292 602.833C109.292 602.831 109.292 602.829 109.292 602.828C109.292 602.826 109.292 602.824 109.292 602.823C109.292 602.821 109.292 602.819 109.292 602.818C109.292 602.816 109.292 602.814 109.292 602.813C109.292 602.811 109.292 602.809 109.292 602.808C109.292 602.806 109.292 602.804 109.292 602.803C109.292 602.801 109.292 602.799 109.292 602.798C109.292 602.796 109.292 602.795 109.292 602.793C109.292 602.791 109.292 602.79 109.292 602.788C109.292 602.786 109.292 602.785 109.292 602.783C109.292 602.781 109.292 602.78 109.292 602.778C109.292 602.776 109.292 602.775 109.292 602.773C109.292 602.772 109.292 602.77 109.292 602.768C109.292 602.767 109.292 602.765 109.292 602.763C109.292 602.762 109.292 602.76 109.292 602.758C109.292 602.757 109.292 602.755 109.292 602.754C109.292 602.752 109.292 602.75 109.292 602.749C109.292 602.747 109.292 602.745 109.292 602.744C109.292 602.742 109.292 602.741 109.292 602.739C109.292 602.737 109.292 602.736 109.292 602.734C109.292 602.732 109.292 602.731 109.292 602.729C109.292 602.728 109.292 602.726 109.292 602.724C109.292 602.723 109.292 602.721 109.292 602.719C109.292 602.718 109.292 602.716 109.292 602.715C109.292 602.713 109.292 602.711 109.292 602.71C109.292 602.708 109.292 602.707 109.292 602.705C109.292 602.703 109.292 602.702 109.292 602.7C109.292 602.699 109.292 602.697 109.292 602.695C109.292 602.694 109.292 602.692 109.292 602.691C109.292 602.689 109.292 602.687 109.292 602.686C109.292 602.684 109.292 602.683 109.292 602.681C109.292 602.679 109.292 602.678 109.292 602.676C109.292 602.675 109.292 602.673 109.292 602.671C109.292 602.67 109.292 602.668 109.292 602.667C109.292 602.665 109.292 602.664 109.292 602.662C109.292 602.66 109.292 602.659 109.292 602.657C109.292 602.656 109.292 602.654 109.292 602.652C109.292 602.651 109.292 602.649 109.292 602.648C109.292 602.646 109.292 602.645 109.292 602.643C109.292 602.642 109.292 602.64 109.292 602.638C109.292 602.637 109.292 602.635 109.292 602.634C109.292 602.632 109.292 602.631 109.292 602.629C109.292 602.627 109.292 602.626 109.292 602.624C109.292 602.623 109.292 602.621 109.292 602.62C109.292 602.618 109.292 602.616 109.292 602.615C109.292 602.613 109.292 602.612 109.292 602.61C109.292 602.609 109.292 602.607 109.292 602.606C109.292 602.604 109.292 602.603 109.292 602.601C109.292 602.599 109.292 602.598 109.292 602.596C109.292 602.595 109.292 602.593 109.292 602.592C109.292 602.59 109.292 602.589 109.292 602.587C109.292 602.586 109.292 602.584 109.292 602.582C109.292 602.581 109.292 602.579 109.292 602.578C109.292 602.576 109.292 602.575 109.292 602.573C109.292 602.572 109.292 602.57 109.292 602.569C109.292 602.567 109.292 602.566 109.292 602.564C109.292 602.563 109.292 602.561 109.292 602.56C109.292 602.558 109.292 602.556 109.292 602.555C109.292 602.553 109.292 602.552 109.292 602.55C109.292 602.549 109.292 602.547 109.292 602.546C109.292 602.544 109.292 602.543 109.292 602.541C109.292 602.54 109.292 602.538 109.292 602.537C109.292 602.535 109.292 602.534 109.292 602.532C109.292 602.531 109.292 602.529 109.292 602.528C109.292 602.526 109.292 602.525 109.292 602.523C109.292 602.522 109.292 602.52 109.292 602.519C109.292 602.517 109.292 602.516 109.292 602.514C109.292 602.513 109.292 602.511 109.292 602.51C109.292 602.508 109.292 602.507 109.292 602.505C109.292 602.504 109.292 602.502 109.292 602.501C109.292 602.499 109.292 602.498 109.292 602.496C109.292 602.495 109.292 602.493 109.292 602.492C109.292 602.49 109.292 602.489 109.292 602.487C109.292 602.486 109.292 602.484 109.292 602.483C109.292 602.481 109.292 602.48 109.292 602.478C109.292 602.477 109.292 602.476 109.292 602.474C109.292 602.473 109.292 602.471 109.292 602.47C109.292 602.468 109.292 602.467 109.292 602.465C109.292 602.464 109.292 602.462 109.292 602.461C109.292 602.459 109.292 602.458 109.292 602.456C109.292 602.455 109.292 602.454 109.292 602.452H105.809ZM105.809 605.718C105.809 607.796 105.878 609.714 106.018 611.469L109.49 611.191C109.359 609.545 109.292 607.721 109.292 605.718H105.809ZM106.018 611.469C106.159 613.223 106.371 614.823 106.659 616.264L110.074 615.581C109.818 614.3 109.622 612.839 109.49 611.191L106.018 611.469ZM108.367 614.181H82.4469V617.664H108.367V614.181ZM80.7053 615.922V634.597H84.1885V615.922H80.7053ZM82.4469 632.855H78.0589V636.338H82.4469V632.855ZM79.8005 634.597V615.922H76.3173V634.597H79.8005ZM78.0589 614.181H18.9739V617.664H78.0589V614.181ZM18.9739 614.181C16.57 614.181 14.5132 614.319 12.8302 614.615C11.1798 614.905 9.72644 615.373 8.66336 616.146L10.7121 618.963C11.1457 618.648 11.9884 618.3 13.4334 618.046C14.8458 617.797 16.6837 617.664 18.9739 617.664V614.181ZM8.62281 616.177C6.49124 617.824 5.70109 620.614 5.70109 623.882H9.18428C9.18428 621.027 9.8908 619.599 10.7526 618.933L8.62281 616.177ZM5.70109 623.882C5.70109 626.183 6.44624 628.384 7.83043 630.46L10.7286 628.528C9.66369 626.931 9.18428 625.391 9.18428 623.882H5.70109ZM7.83839 630.472C9.26918 632.581 11.3266 634.618 13.9432 636.598L16.0451 633.82C13.6273 631.991 11.875 630.218 10.7207 628.516L7.83839 630.472ZM13.6217 634.137L11.0706 637.402L13.8154 639.547L16.3665 636.281L13.6217 634.137ZM13.4635 637.063C9.16987 633.959 6.21428 630.836 4.4722 627.725L1.43309 629.427C3.50073 633.119 6.87202 636.595 11.4225 639.886L13.4635 637.063ZM4.46476 627.712C2.73619 624.687 1.83693 621.051 1.83693 616.739H-1.64626C-1.64626 621.543 -0.640658 625.798 1.4405 629.44L4.46476 627.712ZM1.83693 616.739C1.83693 611.334 3.14166 607.731 5.393 605.536L2.96139 603.042C-0.229755 606.153 -1.64626 610.85 -1.64626 616.739H1.83693ZM5.37753 605.551C7.7127 603.329 11.4793 602.051 17.0351 602.051V598.567C11.0255 598.567 6.22024 599.942 2.97686 603.027L5.37753 605.551ZM0.0953339 683.171L-0.490695 681.531L-1.64626 681.944V683.171H0.0953339ZM78.0589 655.312L78.6449 656.952L79.8005 656.539V655.312H78.0589ZM78.0589 645.516V643.774H76.3173V645.516H78.0589ZM82.4469 645.516H84.1885V643.774H82.4469V645.516ZM82.4469 682.967V684.708H84.1885V682.967H82.4469ZM78.0589 682.967H76.3173V684.708H78.0589V682.967ZM78.0589 671.844H79.8005V669.366L77.4692 670.205L78.0589 671.844ZM21.6271 692.151L21.0375 690.512L16.5949 692.111L21.0114 693.78L21.6271 692.151ZM78.0589 713.479L77.4432 715.108L79.8005 715.999V713.479H78.0589ZM78.0589 700.009V698.267H76.3173V700.009H78.0589ZM82.4469 700.009H84.1885V698.267H82.4469V700.009ZM82.4469 728.684V730.425H84.1885V728.684H82.4469ZM78.0589 728.684H76.3173V730.425H78.0589V728.684ZM78.0589 719.091H79.8005V717.888L78.6751 717.462L78.0589 719.091ZM0.0953339 689.6H-1.64626V690.803L-0.520846 691.229L0.0953339 689.6ZM0.681363 684.811L78.6449 656.952L77.4729 653.672L-0.490695 681.531L0.681363 684.811ZM79.8005 655.312V645.516H76.3173V655.312H79.8005ZM78.0589 647.257H82.4469V643.774H78.0589V647.257ZM80.7053 645.516V682.967H84.1885V645.516H80.7053ZM82.4469 681.225H78.0589V684.708H82.4469V681.225ZM79.8005 682.967V671.844H76.3173V682.967H79.8005ZM77.4692 670.205L21.0375 690.512L22.2169 693.79L78.6486 673.482L77.4692 670.205ZM21.0114 693.78L77.4432 715.108L78.6746 711.85L22.2429 690.522L21.0114 693.78ZM79.8005 713.479V700.009H76.3173V713.479H79.8005ZM78.0589 701.75H82.4469V698.267H78.0589V701.75ZM80.7053 700.009V728.684H84.1885V700.009H80.7053ZM82.4469 726.942H78.0589V730.425H82.4469V726.942ZM79.8005 728.684V719.091H76.3173V728.684H79.8005ZM78.6751 717.462L0.711514 687.971L-0.520846 691.229L77.4427 720.72L78.6751 717.462ZM1.83693 689.6V683.171H-1.64626V689.6H1.83693Z" fill="#FF007F" fill-opacity="0.29" mask="url(#path-1-outside-1_5646_417)"/>
</svg>
