<svg width="141" height="72" viewBox="0 0 141 72" fill="none" xmlns="http://www.w3.org/2000/svg">
<path d="M78.1909 48.074C78.1909 48.0821 78.1909 48.0881 78.1909 48.0921C78.1909 48.0921 78.1909 48.0961 78.1909 48.1041C78.1909 48.1081 78.1909 48.1121 78.1909 48.1161C78.1788 48.3165 78.1067 48.5268 77.9745 48.7472C77.8463 48.9636 77.672 49.1619 77.4516 49.3422C76.9187 49.7829 76.2656 50.0093 75.4923 50.0214C75.1918 50.5302 74.9493 51.0671 74.765 51.6321C75.0135 51.1994 75.2499 50.8828 75.4742 50.6825C75.4782 50.6785 75.4823 50.6745 75.4863 50.6705C75.6986 50.4861 75.913 50.394 76.1294 50.394C76.2496 50.394 76.3497 50.4301 76.4299 50.5022C76.51 50.5743 76.5621 50.6524 76.5861 50.7366C76.6142 50.8167 76.6282 50.8968 76.6282 50.977C76.6282 51.0611 76.6162 51.1473 76.5921 51.2354C76.8285 51.1713 77.0129 51.1192 77.1451 51.0792C77.2813 51.0391 77.4256 50.987 77.5778 50.9229C77.7301 50.8588 77.8363 50.7967 77.8964 50.7366C77.9284 50.7045 77.9605 50.7045 77.9925 50.7366C78.0246 50.7686 78.0246 50.8007 77.9925 50.8327C77.9204 50.9049 77.8002 50.977 77.6319 51.0491C77.4676 51.1172 77.3154 51.1713 77.1751 51.2114C77.0389 51.2514 76.8366 51.3095 76.5681 51.3857C76.5641 51.3857 76.5581 51.3877 76.5501 51.3917C76.5421 51.3917 76.536 51.3917 76.532 51.3917C76.4639 51.5439 76.3698 51.6862 76.2496 51.8184C76.0252 52.0628 75.7768 52.2051 75.5043 52.2451C75.4762 52.2491 75.4462 52.2512 75.4141 52.2512H75.4081C75.2919 52.2552 75.2038 52.2271 75.1437 52.167C75.0956 52.1189 75.0716 52.0548 75.0716 51.9747C75.0716 51.8505 75.1637 51.7403 75.348 51.6441C75.5363 51.548 75.8128 51.4498 76.1774 51.3496C76.2055 51.2374 76.2195 51.1252 76.2195 51.013C76.2195 50.8608 76.1674 50.7566 76.0632 50.7005C75.927 50.6244 75.7607 50.6524 75.5644 50.7847C75.2879 51.0291 74.9594 51.5219 74.5787 52.2632C74.5507 52.3353 74.5086 52.3714 74.4525 52.3714C74.4405 52.3714 74.4305 52.3694 74.4224 52.3653C74.3744 52.3573 74.3363 52.3213 74.3083 52.2572C74.2762 52.189 74.2662 52.1249 74.2782 52.0648C74.3904 51.5119 74.5727 50.969 74.8251 50.4361C75.0816 49.8991 75.3921 49.4063 75.7567 48.9575C75.9731 48.6931 76.1955 48.4627 76.4239 48.2664C76.6522 48.07 76.8706 47.9198 77.079 47.8156C77.2913 47.7114 77.4817 47.6593 77.6499 47.6593C77.7621 47.6593 77.8563 47.6734 77.9324 47.7014C78.0086 47.7254 78.0626 47.7615 78.0947 47.8096C78.1308 47.8537 78.1548 47.8977 78.1668 47.9418C78.1828 47.9819 78.1909 48.026 78.1909 48.074ZM75.4923 52.1069C75.6165 52.0869 75.7347 52.0228 75.8469 51.9146C75.9631 51.8024 76.0532 51.6662 76.1173 51.5059C75.5083 51.6862 75.2038 51.8425 75.2038 51.9747C75.2038 52.0188 75.2158 52.0508 75.2398 52.0708C75.2719 52.1029 75.328 52.1169 75.4081 52.1129C75.4121 52.1129 75.4141 52.1129 75.4141 52.1129C75.4382 52.1129 75.4642 52.1109 75.4923 52.1069ZM75.5764 49.8831C75.937 49.8671 76.2756 49.799 76.5921 49.6788C76.9087 49.5546 77.1691 49.4043 77.3735 49.228C77.5818 49.0517 77.7461 48.8634 77.8663 48.663C77.9865 48.4627 78.0486 48.2724 78.0526 48.0921C78.0486 47.9438 77.9885 47.8697 77.8723 47.8697C77.664 47.8697 77.4075 47.9759 77.103 48.1882C76.7985 48.4006 76.494 48.6851 76.1895 49.0417C75.9691 49.2981 75.7647 49.5786 75.5764 49.8831ZM88.4956 52.6238C88.5156 52.5837 88.5457 52.5737 88.5857 52.5937C88.6258 52.6138 88.6358 52.6438 88.6158 52.6839C88.3834 53.1607 88.0408 53.5273 87.588 53.7838C87.1393 54.0402 86.6104 54.1724 86.0013 54.1804C85.7169 54.1844 85.4083 54.1684 85.0758 54.1324C84.7432 54.0963 84.3666 54.0362 83.9458 53.952C83.5251 53.8719 83.1745 53.7998 82.8941 53.7357C82.6176 53.6756 82.2269 53.5854 81.7221 53.4652C81.2252 53.349 80.8466 53.2609 80.5861 53.2008C80.3297 53.1407 80.0212 53.0786 79.6606 53.0145C79.2999 52.9503 78.9974 52.9083 78.753 52.8882C78.5086 53.309 78.2341 53.6876 77.9296 54.0242C77.6291 54.3647 77.3306 54.6292 77.0341 54.8175C76.7336 55.0098 76.4671 55.106 76.2347 55.106C76.1225 55.106 76.0284 55.092 75.9522 55.0639C75.8761 55.0359 75.822 54.9978 75.79 54.9497C75.7539 54.9057 75.7299 54.8636 75.7178 54.8235C75.7018 54.7835 75.6938 54.7394 75.6938 54.6913V54.6733V54.6613C75.6938 54.6572 75.6938 54.6532 75.6938 54.6492C75.7058 54.4489 75.7779 54.2385 75.9102 54.0182C76.0384 53.8018 76.2107 53.6035 76.427 53.4231C76.6875 53.2108 76.988 53.0445 77.3286 52.9243C77.6652 52.8081 78.0198 52.748 78.3924 52.744C78.4204 52.6919 78.4525 52.6358 78.4886 52.5757C78.5567 52.4515 78.6629 52.2351 78.8071 51.9266C78.9634 51.586 79.0876 51.3336 79.1797 51.1693C79.1637 51.1853 79.1517 51.1974 79.1437 51.2054C78.9914 51.3777 78.8752 51.5079 78.7951 51.596C78.7149 51.6842 78.6108 51.7884 78.4825 51.9086C78.3583 52.0248 78.2461 52.1109 78.146 52.167C78.0498 52.2191 77.9577 52.2451 77.8695 52.2451C77.601 52.2451 77.4668 52.0769 77.4668 51.7403C77.4668 51.588 77.5069 51.4177 77.587 51.2294C77.6672 51.0411 77.7533 50.8788 77.8455 50.7426C77.8695 50.7065 77.9016 50.6865 77.9416 50.6825C77.9857 50.6745 78.0278 50.6825 78.0678 50.7065C78.1119 50.7346 78.14 50.7766 78.152 50.8327C78.164 50.8848 78.152 50.9469 78.1159 51.0191C77.9396 51.3236 77.8515 51.58 77.8515 51.7884C77.8515 51.9446 77.8915 52.0228 77.9717 52.0228C78.0799 52.0228 78.2201 51.9486 78.3924 51.8004C78.5366 51.6722 78.753 51.4438 79.0415 51.1152C79.338 50.7786 79.5444 50.5623 79.6606 50.4661C79.7447 50.378 79.8208 50.3659 79.8889 50.4301C79.929 50.4621 79.953 50.5102 79.9611 50.5743C79.9691 50.6384 79.9571 50.6905 79.925 50.7306C79.8328 50.8428 79.7387 50.981 79.6425 51.1453C79.5504 51.3055 79.4742 51.4438 79.4141 51.56C79.358 51.6722 79.2819 51.8344 79.1857 52.0468C79.0415 52.3473 78.9333 52.5637 78.8612 52.6959C78.8612 52.7039 78.8512 52.726 78.8311 52.762C79.0756 52.7821 79.3741 52.8241 79.7267 52.8882C80.0833 52.9523 80.3878 53.0124 80.6402 53.0685C80.8967 53.1286 81.2673 53.2168 81.7521 53.333C82.261 53.4532 82.6516 53.5434 82.9241 53.6035C83.1966 53.6636 83.5432 53.7337 83.9639 53.8138C84.3846 53.898 84.7592 53.9581 85.0878 53.9941C85.4163 54.0302 85.7209 54.0462 86.0013 54.0422C86.5823 54.0382 87.0872 53.914 87.5159 53.6696C87.9447 53.4251 88.2712 53.0766 88.4956 52.6238ZM76.0123 54.8957C76.2888 54.8957 76.6474 54.7093 77.0882 54.3367C77.5249 53.9681 77.9316 53.4832 78.3082 52.8822C78.0638 52.8902 77.8294 52.9243 77.6051 52.9844C77.3767 53.0445 77.1743 53.1206 76.998 53.2128C76.8217 53.309 76.6594 53.4151 76.5112 53.5313C76.3629 53.6515 76.2407 53.7757 76.1446 53.904C76.0484 54.0362 75.9723 54.1664 75.9162 54.2946C75.8601 54.4269 75.832 54.5531 75.832 54.6733C75.836 54.8215 75.8961 54.8957 76.0123 54.8957Z" fill="black"/>
<path d="M93.486 53.8594V53.5545H94.4981V49.1043H93.499V48.7994H94.4981V48.1312C94.4981 47.0889 94.6732 46.3061 95.0235 45.7828C95.3738 45.2595 95.8928 44.9979 96.5804 44.9979C96.9394 44.9979 97.2292 45.0692 97.4497 45.212C97.6703 45.3547 97.7806 45.5406 97.7806 45.7698C97.7806 45.9212 97.7373 46.0445 97.6508 46.1396C97.5643 46.2304 97.4519 46.2759 97.3135 46.2759C97.1491 46.2759 97.0172 46.2283 96.9178 46.1331C96.8183 46.038 96.7686 45.9126 96.7686 45.7569C96.7686 45.718 96.7729 45.6725 96.7815 45.6206C96.7902 45.5644 96.7945 45.5298 96.7945 45.5168C96.7945 45.4477 96.7642 45.3958 96.7037 45.3612C96.6475 45.3222 96.5675 45.3028 96.4637 45.3028C96.1307 45.3028 95.8906 45.4909 95.7436 45.8672C95.5965 46.2391 95.523 46.8662 95.523 47.7484V48.7994H96.5545V49.1043H95.523V53.5545H96.5156V53.8594H93.486ZM100.784 51.1996C100.045 51.1996 99.478 51.3121 99.0845 51.537C98.6953 51.7575 98.5006 52.0797 98.5006 52.5036C98.5006 52.8063 98.5915 53.0485 98.7731 53.2301C98.9547 53.4118 99.1969 53.5026 99.4997 53.5026C99.8759 53.5026 100.183 53.4053 100.421 53.2107C100.663 53.016 100.784 52.763 100.784 52.4517V51.1996ZM100.817 53.1523C100.648 53.4161 100.393 53.628 100.051 53.788C99.7138 53.9437 99.3483 54.0216 98.9547 54.0216C98.505 54.0216 98.1482 53.9134 97.8844 53.6972C97.6249 53.481 97.4951 53.1934 97.4951 52.8344C97.4951 52.2419 97.7849 51.7748 98.3644 51.4332C98.9483 51.0915 99.7548 50.9164 100.784 50.9077V49.6622C100.784 49.407 100.698 49.2189 100.525 49.0978C100.356 48.9767 100.094 48.9161 99.7397 48.9161C99.4586 48.9161 99.2099 48.9659 98.9937 49.0653C98.7818 49.1648 98.6758 49.2664 98.6758 49.3702C98.6758 49.3875 98.7363 49.4567 98.8574 49.5778C98.9829 49.6946 99.0456 49.8287 99.0456 49.98C99.0456 50.1444 98.9958 50.2784 98.8964 50.3822C98.7969 50.486 98.6693 50.5379 98.5136 50.5379C98.3406 50.5379 98.2044 50.4817 98.1049 50.3693C98.0055 50.2568 97.9557 50.1055 97.9557 49.9152C97.9557 49.5562 98.1503 49.2578 98.5396 49.0199C98.9288 48.7821 99.4305 48.6631 100.045 48.6631C100.693 48.6631 101.15 48.7669 101.413 48.9745C101.677 49.1778 101.809 49.5432 101.809 50.0709V52.9706C101.809 53.1739 101.829 53.308 101.867 53.3728C101.906 53.4334 101.976 53.4637 102.075 53.4637C102.183 53.4637 102.281 53.4204 102.367 53.3339C102.454 53.2431 102.512 53.1306 102.542 52.9966H102.756C102.73 53.2993 102.616 53.5437 102.412 53.7296C102.213 53.9156 101.965 54.0086 101.666 54.0086C101.411 54.0086 101.212 53.9372 101.07 53.7945C100.927 53.6518 100.843 53.4377 100.817 53.1523ZM103.463 53.8594V52.1468H103.781C103.911 52.6355 104.136 53.0139 104.456 53.282C104.776 53.5502 105.159 53.6842 105.604 53.6842C105.985 53.6842 106.292 53.5869 106.525 53.3923C106.759 53.1977 106.876 52.9425 106.876 52.6268C106.876 52.2679 106.445 52.0062 105.585 51.8419C105.416 51.8073 105.284 51.7791 105.189 51.7575C104.527 51.6191 104.075 51.4397 103.833 51.2191C103.595 50.9942 103.476 50.6698 103.476 50.246C103.476 49.7789 103.634 49.3984 103.95 49.1043C104.266 48.8102 104.674 48.6631 105.176 48.6631C105.461 48.6631 105.712 48.7021 105.928 48.7799C106.149 48.8534 106.324 48.9615 106.454 49.1043L106.72 48.7604H106.902V50.233H106.623C106.532 49.8092 106.363 49.487 106.117 49.2664C105.87 49.0416 105.557 48.9291 105.176 48.9291C104.826 48.9291 104.54 49.0156 104.32 49.1886C104.103 49.3616 103.995 49.5865 103.995 49.8633C103.995 50.2179 104.499 50.486 105.507 50.6677C105.675 50.698 105.805 50.7217 105.896 50.739C106.406 50.8299 106.787 51.0028 107.038 51.258C107.293 51.5089 107.421 51.844 107.421 52.2635C107.421 52.8041 107.245 53.2323 106.895 53.548C106.549 53.8637 106.078 54.0216 105.481 54.0216C105.208 54.0216 104.949 53.9697 104.702 53.8659C104.46 53.7621 104.237 53.6085 104.034 53.4053L103.729 53.8594H103.463ZM108.335 53.8594V53.5545H109.029V45.3936H108.348V45.1341C108.634 45.1255 108.917 45.1103 109.198 45.0887C109.479 45.0671 109.767 45.0368 110.061 44.9979V50.0968C110.255 49.6211 110.517 49.2621 110.846 49.0199C111.179 48.7734 111.57 48.6502 112.02 48.6502C112.483 48.6502 112.844 48.7756 113.103 49.0264C113.363 49.2773 113.493 49.6254 113.493 50.0709V53.5545H114.18V53.8594H111.722V53.5545H112.481V50.0319C112.481 49.6989 112.414 49.4524 112.279 49.2924C112.145 49.1324 111.938 49.0524 111.657 49.0524C111.233 49.0524 110.861 49.2708 110.541 49.7076C110.221 50.1444 110.061 50.6612 110.061 51.258V53.5545H110.755V53.8594H108.335ZM115.737 46.0747C115.737 45.8931 115.802 45.7396 115.932 45.6142C116.061 45.4887 116.219 45.426 116.405 45.426C116.587 45.426 116.743 45.4909 116.872 45.6206C117.002 45.7461 117.067 45.8974 117.067 46.0747C117.067 46.2564 117.002 46.4121 116.872 46.5418C116.743 46.6716 116.587 46.7364 116.405 46.7364C116.219 46.7364 116.061 46.6716 115.932 46.5418C115.802 46.4121 115.737 46.2564 115.737 46.0747ZM114.965 53.8594V53.5545H115.86V49.0653H115.011V48.7864H115.264C115.545 48.7864 115.821 48.7756 116.094 48.754C116.371 48.7323 116.632 48.7021 116.879 48.6631V53.5545H117.651V53.8594H114.965ZM118.598 51.3359C118.598 50.5833 118.842 49.9498 119.331 49.4351C119.824 48.9205 120.427 48.6631 121.141 48.6631C121.868 48.6631 122.469 48.9161 122.944 49.4221C123.424 49.9281 123.664 50.5617 123.664 51.3229C123.664 52.0711 123.416 52.7068 122.918 53.2301C122.425 53.7491 121.829 54.0086 121.128 54.0086C120.401 54.0086 119.798 53.7556 119.318 53.2496C118.838 52.7393 118.598 52.1013 118.598 51.3359ZM119.824 51.3359C119.824 52.296 119.921 52.9404 120.116 53.269C120.311 53.5934 120.648 53.7556 121.128 53.7556C121.604 53.7556 121.941 53.5826 122.14 53.2366C122.339 52.8906 122.438 52.2614 122.438 51.3488C122.438 50.3801 122.341 49.7378 122.146 49.4221C121.956 49.1021 121.621 48.9421 121.141 48.9421C120.657 48.9421 120.315 49.1108 120.116 49.4481C119.921 49.7854 119.824 50.4147 119.824 51.3359ZM124.423 53.8594V53.5545H125.131V49.0653H124.41V48.7864H124.651C124.919 48.7864 125.178 48.7756 125.429 48.754C125.68 48.7323 125.916 48.7021 126.136 48.6631L126.143 50.1422C126.333 49.6535 126.592 49.2859 126.921 49.0394C127.254 48.7886 127.65 48.6631 128.108 48.6631C128.571 48.6631 128.932 48.7864 129.192 49.0329C129.451 49.2794 129.581 49.6254 129.581 50.0709V53.5545H130.275V53.8594H127.816V53.5545H128.569V50.0319C128.569 49.6989 128.502 49.4524 128.368 49.2924C128.234 49.1324 128.026 49.0524 127.745 49.0524C127.317 49.0524 126.947 49.2664 126.636 49.6946C126.324 50.1228 126.169 50.6439 126.169 51.258V53.5545H126.869V53.8594H124.423ZM131.605 52.9447V49.0653H130.859V48.7864H131.605V47.1776C131.648 47.1819 131.693 47.1862 131.741 47.1905C131.789 47.1905 131.858 47.1905 131.949 47.1905C132.078 47.1905 132.197 47.1862 132.305 47.1776C132.414 47.1689 132.511 47.1559 132.597 47.1386V48.7864H133.784V49.0653H132.597V52.8214C132.597 53.1198 132.632 53.3166 132.701 53.4118C132.775 53.5069 132.909 53.5545 133.103 53.5545C133.224 53.5545 133.343 53.5156 133.46 53.4377C133.581 53.3555 133.702 53.2344 133.823 53.0744L134.031 53.2366C133.828 53.5177 133.618 53.7188 133.402 53.8399C133.19 53.961 132.939 54.0216 132.649 54.0216C132.29 54.0216 132.026 53.9351 131.858 53.7621C131.689 53.5848 131.605 53.3123 131.605 52.9447ZM136.872 54.0216L135.101 49.0653H134.479V48.7864H136.859V49.0653H136.152L137.443 52.6528L138.799 49.0653H137.943V48.7864H139.766V49.0653H139.156L137.281 54.0216H136.872Z" fill="black"/>
<path d="M86.2078 53.306L80.8223 47.9206L83.5905 45.1523H88.8187L91.587 47.9206L86.2078 53.306ZM81.5773 47.9206L86.2078 52.5511L90.8383 47.9206L88.5985 45.6808H83.8107L81.5773 47.9206Z" fill="black"/>
<path d="M87.0548 48.2704V48.4403H86.4257V51.0134H87.0548V51.1833H85.3184V51.0134H85.8846V48.4403H85.3184V48.2704H85.8846V47.9118C85.8846 46.6535 86.4068 46.125 87.1114 46.125C87.3945 46.125 87.7406 46.2571 87.7406 46.6031C87.7342 46.6699 87.7027 46.7317 87.6525 46.7761C87.6023 46.8205 87.537 46.8441 87.47 46.8422C87.4273 46.8435 87.3848 46.8355 87.3454 46.8187C87.3061 46.8019 87.2708 46.7769 87.2421 46.7452C87.2134 46.7135 87.1919 46.6759 87.1792 46.6351C87.1664 46.5943 87.1626 46.5512 87.1681 46.5088C87.1681 46.427 87.2247 46.4207 87.2247 46.32C87.2247 46.2194 87.0988 46.276 87.0485 46.276C86.6962 46.276 86.4697 46.7038 86.4697 47.4399V48.2704H87.0548Z" fill="black"/>
<path d="M88.3063 48.3388C88.2965 48.4026 88.2641 48.4609 88.215 48.503C88.166 48.545 88.1035 48.5682 88.0389 48.5682C87.9743 48.5682 87.9118 48.545 87.8627 48.503C87.8137 48.4609 87.7813 48.4026 87.7715 48.3388C87.7813 48.2749 87.8137 48.2167 87.8627 48.1746C87.9118 48.1325 87.9743 48.1094 88.0389 48.1094C88.1035 48.1094 88.166 48.1325 88.215 48.1746C88.2641 48.2167 88.2965 48.2749 88.3063 48.3388Z" fill="black"/>
<path d="M74.482 43.8383L74.1783 43.8379L74.1815 40.7662L74.5199 40.7665C74.7967 41.6346 75.2327 42.3205 75.828 42.8244C76.4291 43.3226 77.1057 43.572 77.8577 43.5728C78.6965 43.5737 79.4025 43.3112 79.9758 42.7854C80.5548 42.2596 80.8447 41.6178 80.8455 40.8599C80.8465 39.9691 79.9737 39.248 78.2273 38.6966C78.0885 38.6559 77.9844 38.624 77.915 38.6008C76.423 38.1249 75.4314 37.6379 74.9402 37.1399C74.449 36.6361 74.2039 35.9561 74.2048 35.1C74.2058 34.1397 74.5219 33.3591 75.1531 32.7581C75.7842 32.1514 76.606 31.8485 77.6183 31.8496C78.3704 31.8504 79.073 32.0449 79.7263 32.4332C79.8477 32.5085 79.92 32.5462 79.9431 32.5462C79.9778 32.5404 80.0068 32.5318 80.0299 32.5202C80.0589 32.5029 80.0849 32.4798 80.1081 32.4509L80.4469 32.0781L80.82 32.0785L80.8172 34.7511L80.4962 34.7508C80.2136 33.9117 79.8151 33.2836 79.3007 32.8666C78.792 32.4495 78.1675 32.2406 77.427 32.2398C76.756 32.2391 76.1889 32.441 75.7257 32.8455C75.2682 33.2441 75.0392 33.7327 75.0386 34.3112C75.0381 34.7913 75.2141 35.1849 75.5667 35.4919C75.9193 35.7988 76.4975 36.0598 77.3013 36.2746C77.417 36.3037 77.5934 36.3501 77.8305 36.414C79.1722 36.7741 80.0598 37.1192 80.4933 37.4494C80.8748 37.7448 81.1637 38.1125 81.3599 38.5523C81.5619 38.9922 81.6626 39.4898 81.662 40.0451C81.6608 41.2542 81.3011 42.217 80.583 42.9335C79.8708 43.6501 78.9072 44.0078 77.6924 44.0065C76.842 44.0056 76.0642 43.7734 75.3589 43.3099C75.2433 43.2345 75.1768 43.1969 75.1595 43.1968C75.1421 43.1968 75.119 43.2055 75.09 43.2228C75.0669 43.2401 75.0408 43.2632 75.0119 43.2921L74.482 43.8383ZM85.7414 39.0862L88.7958 39.0894L87.3255 34.4022L85.7414 39.0862ZM82.3697 43.7945L82.3701 43.3519L83.7585 43.3534L87.7534 31.8255L88.196 31.8259L91.8977 43.3619L93.1212 43.3632L93.1208 43.8057L88.678 43.8011L88.6785 43.3585L90.1189 43.36L88.9514 39.6102L85.5759 39.6067L84.3312 43.354L85.8063 43.3555L85.8058 43.7981L82.3697 43.7945ZM93.8323 43.8065L93.8328 43.3639L95.2905 43.3654L95.3018 32.5796L93.9048 32.5782L93.9053 32.1269L98.6864 32.1319L98.686 32.5832L97.0807 32.5815L97.0694 43.3673L99.473 43.3698C100.352 43.3707 101.003 43.1718 101.426 42.7731C101.854 42.3686 102.199 41.6199 102.461 40.5268L102.799 40.5272L102.596 43.8156L93.8323 43.8065ZM108.904 44.1086C108.118 44.1078 107.427 43.9595 106.831 43.6639C106.241 43.3682 105.701 42.9049 105.21 42.2738C104.771 41.7064 104.433 41.0495 104.197 40.303C103.96 39.5507 103.842 38.761 103.843 37.9338C103.844 37.1355 103.958 36.3922 104.184 35.7041C104.416 35.0159 104.761 34.3915 105.219 33.8309C105.746 33.1893 106.313 32.7126 106.921 32.4009C107.529 32.0891 108.194 31.9336 108.917 31.9344C109.611 31.9351 110.245 32.0746 110.817 32.3529C111.395 32.6312 111.927 33.054 112.412 33.6215C112.915 34.212 113.299 34.8835 113.564 35.6358C113.83 36.3823 113.962 37.1808 113.961 38.0311C113.96 38.8584 113.832 39.6479 113.577 40.3996C113.327 41.1514 112.968 41.8134 112.499 42.3856C112.018 42.9809 111.488 43.4171 110.909 43.6942C110.33 43.9712 109.662 44.1094 108.904 44.1086ZM108.917 32.3422C107.794 32.3411 107.004 32.8001 106.546 33.7194C106.088 34.6387 105.858 36.3103 105.856 38.7342C105.854 40.3886 106.104 41.624 106.607 42.4401C107.109 43.2563 107.875 43.665 108.905 43.666C109.929 43.6671 110.69 43.2601 111.188 42.4449C111.692 41.624 111.945 40.3777 111.947 38.7058C111.95 36.2646 111.726 34.5955 111.276 33.6984C110.825 32.7955 110.039 32.3434 108.917 32.3422ZM115.447 43.8291L115.448 43.3866L116.758 43.3879L116.769 32.6021L115.476 32.6007L115.477 32.1495L118.87 32.1531L123.842 40.5145L123.85 32.6095L122.531 32.6081L122.532 32.1569L125.768 32.1603L125.768 32.6115L124.414 32.6101L124.402 44.1248L123.942 44.1243L117.324 32.8109L117.313 43.3885L118.632 43.3899L118.632 43.8324L115.447 43.8291Z" fill="black"/>
<path d="M94.9132 24.4897L94.9069 24.4834L70.4834 0.0664062H24.4109L10.5571 13.9264L0 24.4834H0.00629762L0 24.4897L47.4503 71.9334H47.4566L63.2482 56.1419L63.7893 55.6008L63.8333 55.5568L65.9661 53.4429L71.943 47.4597H71.9305L74.1891 45.2011H67.5453L47.4566 65.2834L6.6375 24.4709V24.4646L26.355 4.75981H68.5394L88.2631 24.4771L81.7137 31.0265H88.3638L89.8297 29.5606H89.836L90.5092 28.8811L94.9132 24.4897Z" fill="black"/>
<path d="M58.4916 15.0653C59.5926 15.0653 60.8887 14.2222 60.8887 12.9262C60.8887 9.87485 57.9694 8.71094 55.4403 8.71094C49.218 8.71094 44.6126 13.3792 44.6126 24.4395V27.5852H39.6172V29.0763H44.6126V51.7695H39.6172V53.3046H54.9244V51.8072H49.671V29.1329H54.9244V27.6418H49.671V20.3123C49.671 13.8322 51.6779 10.0699 54.7922 10.0699C55.2452 10.0699 56.3462 10.1328 56.3462 10.46C56.3462 11.303 55.8303 11.3659 55.8303 12.0769C55.8303 13.8322 56.7363 15.0653 58.4916 15.0653Z" fill="black"/>
<path d="M61.7676 28.2881C61.7686 28.7353 61.8997 29.1725 62.1451 29.5464C62.2933 29.7912 62.4877 30.0049 62.7176 30.1755C63.1205 30.4777 63.6106 30.6411 64.1143 30.6411C64.618 30.6411 65.108 30.4777 65.511 30.1755C65.7443 30.0069 65.9412 29.7929 66.0898 29.5464C66.3329 29.1718 66.4619 28.7347 66.461 28.2881C66.461 27.6657 66.2138 27.0688 65.7737 26.6287C65.3336 26.1886 64.7367 25.9414 64.1143 25.9414C63.4919 25.9414 62.895 26.1886 62.4549 26.6287C62.0148 27.0688 61.7676 27.6657 61.7676 28.2881Z" fill="black"/>
</svg>
